<svg width="114" height="130" viewBox="0 0 114 130" fill="none" xmlns="http://www.w3.org/2000/svg">
<path d="M28.5 65V45.7844C28.5 43.7125 28.1742 41.6406 27.5635 39.6703L20.1128 16.1891C18.1178 9.9125 22.5353 3.43281 29.131 3.00625C36.4392 2.49844 46.2514 2.03125 57 2.03125C67.7485 2.03125 77.5607 2.49844 84.8689 2.98594C91.4442 3.43281 95.8617 9.89219 93.8871 16.1688L86.4567 39.6703C85.8257 41.6406 85.5 43.7125 85.5 45.7844V65" stroke="white" stroke-width="3" stroke-miterlimit="10" stroke-linecap="round" stroke-linejoin="round"/>
<path d="M28.4999 60.9375H22.3928C16.7742 60.9375 12.2142 56.3875 12.2142 50.7812V40.625" stroke="white" stroke-width="3" stroke-miterlimit="10" stroke-linecap="round" stroke-linejoin="round"/>
<path d="M2.03577 40.625H16.2858" stroke="white" stroke-width="3" stroke-miterlimit="10" stroke-linecap="round" stroke-linejoin="round"/>
<path d="M85.5 60.9375H91.6071C97.2257 60.9375 101.786 56.3875 101.786 50.7812V40.625" stroke="white" stroke-width="3" stroke-miterlimit="10" stroke-linecap="round" stroke-linejoin="round"/>
<path d="M111.964 40.625H97.7142" stroke="white" stroke-width="3" stroke-miterlimit="10" stroke-linecap="round" stroke-linejoin="round"/>
<path d="M91.424 72.8813C94.9255 72.7594 96.9612 76.9844 94.5794 79.5437C88.4519 86.1859 73.9373 87.3438 57.0001 87.3438C40.063 87.3438 25.528 86.1859 19.4005 79.5437C16.978 76.9234 19.1562 72.7391 22.7391 72.8813C29.1312 73.125 38.9841 71.0938 57.0001 71.0938C76.2376 71.0938 85.5001 73.0844 91.424 72.8813Z" stroke="white" stroke-width="3" stroke-miterlimit="10" stroke-linecap="round" stroke-linejoin="round"/>
<path d="M50.8928 95.4688V97.5C50.8928 98.6172 51.8089 99.5312 52.9285 99.5312H61.0714C62.191 99.5312 63.1071 98.6172 63.1071 97.5V95.4688" stroke="white" stroke-width="3" stroke-miterlimit="10" stroke-linecap="round" stroke-linejoin="round"/>
<path d="M57 99.5312V113.75" stroke="white" stroke-width="3" stroke-miterlimit="10" stroke-linecap="round" stroke-linejoin="round"/>
<path d="M20.3572 115.781L57 107.656" stroke="white" stroke-width="3" stroke-miterlimit="10" stroke-linecap="round" stroke-linejoin="round"/>
<path d="M20.3571 127.969C23.73 127.969 26.4643 125.24 26.4643 121.875C26.4643 118.51 23.73 115.781 20.3571 115.781C16.9843 115.781 14.25 118.51 14.25 121.875C14.25 125.24 16.9843 127.969 20.3571 127.969Z" stroke="white" stroke-width="3" stroke-miterlimit="10" stroke-linecap="round" stroke-linejoin="round"/>
<path d="M93.6429 115.781L57 107.656" stroke="white" stroke-width="3" stroke-miterlimit="10" stroke-linecap="round" stroke-linejoin="round"/>
<path d="M93.6429 127.969C97.0158 127.969 99.7501 125.24 99.7501 121.875C99.7501 118.51 97.0158 115.781 93.6429 115.781C90.27 115.781 87.5358 118.51 87.5358 121.875C87.5358 125.24 90.27 127.969 93.6429 127.969Z" stroke="white" stroke-width="3" stroke-miterlimit="10" stroke-linecap="round" stroke-linejoin="round"/>
<path d="M57 127.969C60.3728 127.969 63.1071 125.24 63.1071 121.875C63.1071 118.51 60.3728 115.781 57 115.781C53.6271 115.781 50.8928 118.51 50.8928 121.875C50.8928 125.24 53.6271 127.969 57 127.969Z" stroke="white" stroke-width="3" stroke-miterlimit="10" stroke-linecap="round" stroke-linejoin="round"/>
</svg>
