<svg width="80" height="80" viewBox="0 0 80 80" fill="none" xmlns="http://www.w3.org/2000/svg">
<path d="M39.9992 0C17.9426 0 0 17.944 0 40C0 62.056 17.9426 80 39.9992 80C62.0558 80 80 62.056 80 40C80 17.944 62.0558 0 39.9992 0ZM39.9992 74.754C20.836 74.754 5.246 59.1632 5.246 40C5.246 20.8366 20.8358 5.2462 39.9992 5.2462C59.1626 5.2462 74.7534 20.8368 74.7534 40C74.7534 59.1632 59.1624 74.754 39.9992 74.754Z" fill="#FBC641"/>
<path d="M49.9998 42V44C49.9998 49.54 48.6718 54.89 46.1698 59.692L45.7157 60.532L42.2218 58.584C44.5418 54.424 45.8418 49.764 45.9858 44.912L45.9998 44V42H49.9998ZM37.9998 36H41.9998V44L41.9898 44.758C41.8386 50.2334 39.9542 55.5196 36.6078 59.856L36.1458 60.436L33.0458 57.908C36.0985 54.1797 37.8357 49.5483 37.9878 44.732L37.9998 44V36ZM39.9998 28C42.6519 28 45.1955 29.0536 47.0708 30.9289C48.9462 32.8043 49.9998 35.3478 49.9998 38H45.9998C45.9998 36.4087 45.3676 34.8826 44.2424 33.7574C43.1172 32.6321 41.5911 32 39.9998 32C38.4085 32 36.8823 32.6321 35.7571 33.7574C34.6319 34.8826 33.9998 36.4087 33.9998 38V44C33.9998 48.47 32.3598 52.688 29.4578 55.954L29.0338 56.414L26.1378 53.654C28.4777 51.2059 29.8462 47.9896 29.9878 44.606L29.9998 44V38C29.9998 35.3478 31.0533 32.8043 32.9287 30.9289C34.804 29.0536 37.3476 28 39.9998 28ZM39.9998 20C44.7736 20 49.352 21.8964 52.7277 25.2721C56.1033 28.6477 57.9998 33.2261 57.9998 38V44C57.9998 47.396 57.5958 50.74 56.8058 53.98L56.5278 55.058L52.6677 54.006C53.4517 51.132 53.8938 48.162 53.9838 45.136L53.9998 44V38C53.9998 35.4017 53.2767 32.8547 51.9115 30.644C50.5463 28.4333 48.5928 26.6461 46.2697 25.4825C43.9466 24.3188 41.3454 23.8246 38.7574 24.0552C36.1694 24.2858 33.6966 25.232 31.6158 26.788L28.7658 23.936C31.9527 21.3826 35.916 19.9939 39.9998 20ZM25.9358 26.766L28.7878 29.616C27.0724 31.9025 26.1019 34.6612 26.0078 37.518L25.9998 38L26.0078 42C26.0078 44.24 25.4798 46.406 24.4838 48.354L24.1718 48.934L20.6978 46.95C21.4578 45.62 21.9018 44.136 21.9898 42.584L22.0078 42V38C21.9959 33.9167 23.382 29.9523 25.9358 26.766Z" fill="#FBC641"/>
</svg>
