<svg width="86" height="130" viewBox="0 0 86 130" fill="none" xmlns="http://www.w3.org/2000/svg">
<path d="M16.8519 17.8344L11.2619 42.2906C10.5862 45.2156 9.48046 48.0391 7.9857 50.6594L3.41951 58.6016C2.51856 60.125 2.04761 61.8719 2.04761 63.6391V65C2.04761 70.6062 6.63427 75.1562 12.2857 75.1562H73.7143C79.3657 75.1562 83.9524 70.6062 83.9524 65V63.6391C83.9524 61.8719 83.4814 60.125 82.6009 58.6016L78.0347 50.6594C76.54 48.0391 75.4138 45.2359 74.7585 42.2906L69.1481 17.8344C67.0186 8.59219 58.7462 2.03125 49.1838 2.03125H36.8162C27.2538 2.03125 18.9814 8.59219 16.8519 17.8344Z" stroke="white" stroke-width="3" stroke-miterlimit="10" stroke-linecap="round" stroke-linejoin="round"/>
<path d="M19.1045 60.9375C20.2716 62.1969 21.9507 62.9688 23.7935 62.9688H62.1864C64.0497 62.9688 65.7083 62.1969 66.8754 60.9375" stroke="white" stroke-width="3" stroke-miterlimit="10" stroke-linecap="round" stroke-linejoin="round"/>
<path d="M10.238 127.969L20.4761 83.2812L71.6666 111.719" stroke="white" stroke-width="3" stroke-miterlimit="10" stroke-linecap="round" stroke-linejoin="round"/>
<path d="M75.7619 127.969L65.5238 83.2812L14.3334 111.719" stroke="white" stroke-width="3" stroke-miterlimit="10" stroke-linecap="round" stroke-linejoin="round"/>
</svg>
