<svg width="547" height="171" viewBox="0 0 547 171" fill="none" xmlns="http://www.w3.org/2000/svg">
<path fill-rule="evenodd" clip-rule="evenodd" d="M393.432 17.0833L410.496 34.1667L427.559 17.0833L410.496 0L393.432 17.0833Z" fill="#EE5353"/>
<path fill-rule="evenodd" clip-rule="evenodd" d="M171.874 154.083L188.937 171.167L206 154.083L188.937 137L171.874 154.083Z" fill="#EE5353"/>
<path fill-rule="evenodd" clip-rule="evenodd" d="M359.306 17.0833L376.369 34.1667L393.432 17.0833L376.369 0L359.306 17.0833Z" fill="#F5D749"/>
<path fill-rule="evenodd" clip-rule="evenodd" d="M410.495 51.2501C410.495 60.6852 418.135 68.3334 427.558 68.3334H444.622V34.1667H427.558C418.135 34.1667 410.495 41.815 410.495 51.2501Z" fill="#EE5353"/>
<path fill-rule="evenodd" clip-rule="evenodd" d="M393.432 102.5C384.008 102.5 376.369 110.148 376.369 119.583V136.667H393.432C402.856 136.667 410.495 129.018 410.495 119.583C410.495 110.148 402.856 102.5 393.432 102.5Z" fill="#EE5353"/>
<path fill-rule="evenodd" clip-rule="evenodd" d="M393.261 111.042C388.55 111.042 384.73 114.867 384.73 119.583V128.125H393.261C397.973 128.125 401.793 124.3 401.793 119.583C401.793 114.867 397.973 111.042 393.261 111.042Z" fill="#F5D749"/>
<path fill-rule="evenodd" clip-rule="evenodd" d="M308.117 153.75C308.117 163.185 300.478 170.833 291.054 170.833H273.991V153.75C273.991 144.315 281.63 136.667 291.054 136.667C300.478 136.667 308.117 144.315 308.117 153.75Z" fill="#EE5353"/>
<path d="M342.243 119.583C342.243 129.018 349.882 136.667 359.306 136.667H376.369V119.583C376.369 110.148 368.73 102.5 359.306 102.5C349.882 102.5 342.243 110.148 342.243 119.583Z" fill="#2E33B1"/>
<path fill-rule="evenodd" clip-rule="evenodd" d="M350.604 119.583C350.604 124.3 354.424 128.125 359.135 128.125H367.667V119.583C367.667 114.867 363.847 111.042 359.135 111.042C354.424 111.042 350.604 114.867 350.604 119.583Z" fill="#EE5353"/>
<path fill-rule="evenodd" clip-rule="evenodd" d="M419.198 51.2502C419.198 55.9669 423.018 59.7918 427.729 59.7918H436.261V51.2502C436.261 46.5335 432.44 42.7085 427.729 42.7085C423.018 42.7085 419.198 46.5335 419.198 51.2502Z" fill="#F5D749"/>
<path fill-rule="evenodd" clip-rule="evenodd" d="M376.369 68.3335C357.521 68.3335 342.243 83.5906 342.243 102.413V102.5H410.495V102.413C410.495 83.5906 395.217 68.3335 376.369 68.3335Z" fill="#F5D749"/>
<path d="M410.495 136.667C410.495 155.537 425.774 170.833 444.622 170.833V102.5C425.774 102.5 410.495 117.796 410.495 136.667Z" fill="#2E33B1"/>
<path fill-rule="evenodd" clip-rule="evenodd" d="M308.117 136.667C289.269 136.667 273.991 121.37 273.991 102.5H342.243C342.243 121.37 326.965 136.667 308.117 136.667Z" fill="#EE5353"/>
<path fill-rule="evenodd" clip-rule="evenodd" d="M444.622 34.1667V0H410.495L444.622 34.1667Z" fill="#3BA8C6"/>
<path d="M547 0H512.874V34.1667H547V0Z" fill="#2E33B1"/>
<path fill-rule="evenodd" clip-rule="evenodd" d="M478.748 102.5H444.621V136.667H478.748V102.5Z" fill="#3BA8C6"/>
<path fill-rule="evenodd" clip-rule="evenodd" d="M529.937 51.25L512.874 68.3333L529.937 85.4167L547 68.3333L529.937 51.25Z" fill="#EE5353"/>
<path fill-rule="evenodd" clip-rule="evenodd" d="M461.514 102.5L444.451 119.583L461.514 136.667L478.577 119.583L461.514 102.5Z" fill="#EE5353"/>
<path d="M529.937 85.4167L512.874 102.5L529.937 119.583L547 102.5L529.937 85.4167Z" fill="white"/>
<path d="M290.883 145.208L282.351 153.75L290.883 162.292L299.415 153.75L290.883 145.208Z" fill="white"/>
<path fill-rule="evenodd" clip-rule="evenodd" d="M410.41 34.2522C410.41 53.0268 395.132 68.248 376.284 68.248C357.436 68.248 342.158 53.0268 342.158 34.2522H410.41ZM367.838 51.2501L376.369 42.7084L384.901 51.2501L376.369 59.7918L367.838 51.2501Z" fill="#3BA8C6"/>
<path d="M291.054 17.0833L273.991 34.1667V0L291.054 17.0833Z" fill="white"/>
<path d="M529.937 119.583L512.874 136.667L529.937 153.75L547 136.667L529.937 119.583Z" fill="#2E33B1"/>
<path d="M325.18 17.0833L308.117 34.1667L291.054 17.0833L308.117 0L325.18 17.0833Z" fill="#2E33B1"/>
<path fill-rule="evenodd" clip-rule="evenodd" d="M478.748 51.2501C478.748 60.6852 486.387 68.3334 495.811 68.3334H512.874V34.1667H495.811C486.387 34.1667 478.748 41.815 478.748 51.2501Z" fill="#F5D749"/>
<path fill-rule="evenodd" clip-rule="evenodd" d="M342.243 153.75C342.243 163.185 349.882 170.833 359.306 170.833H376.369V136.667H359.306C349.882 136.667 342.243 144.315 342.243 153.75Z" fill="#EE5353"/>
<path fill-rule="evenodd" clip-rule="evenodd" d="M495.811 68.3335C486.387 68.3335 478.748 75.9817 478.748 85.4168C478.748 94.8519 486.387 102.5 495.811 102.5H512.874V85.4168C512.874 75.9817 505.235 68.3335 495.811 68.3335Z" fill="#EE5353"/>
<path d="M461.684 68.3335C452.261 68.3335 444.621 75.9817 444.621 85.4168V102.5H461.684C471.108 102.5 478.748 94.8519 478.748 85.4168C478.748 75.9817 471.108 68.3335 461.684 68.3335Z" fill="#2E33B1"/>
<path fill-rule="evenodd" clip-rule="evenodd" d="M478.748 34.1667C478.748 15.2964 463.469 0 444.621 0V68.3333C463.469 68.3333 478.748 53.0369 478.748 34.1667Z" fill="#F5D749"/>
<path d="M512.874 0H478.748V34.1667L512.874 0Z" fill="white"/>
<path fill-rule="evenodd" clip-rule="evenodd" d="M478.748 34.1667H512.874V0L478.748 34.1667Z" fill="#EE5353"/>
<path fill-rule="evenodd" clip-rule="evenodd" d="M547 34.1667H512.874V68.3334L547 34.1667Z" fill="#3BA8C6"/>
<path fill-rule="evenodd" clip-rule="evenodd" d="M512.874 170.833H547V136.667L512.874 170.833Z" fill="#3BA8C6"/>
<path fill-rule="evenodd" clip-rule="evenodd" d="M308.117 8.39233e-05V34.1667H342.243L308.117 8.39233e-05Z" fill="#3BA8C6"/>
<path fill-rule="evenodd" clip-rule="evenodd" d="M512.874 136.667V102.5H478.748L512.874 136.667Z" fill="#F5D749"/>
<path d="M410.495 136.667H376.369V170.833L410.495 136.667Z" fill="white"/>
<path d="M342.243 136.667V170.833H308.117L342.243 136.667Z" fill="white"/>
<path fill-rule="evenodd" clip-rule="evenodd" d="M376.369 0H342.243V34.1667L376.369 0Z" fill="#3BA8C6"/>
<path fill-rule="evenodd" clip-rule="evenodd" d="M376.369 170.833H410.495V136.667L376.369 170.833Z" fill="#F5D749"/>
<path fill-rule="evenodd" clip-rule="evenodd" d="M308.117 170.833V136.667H342.243L308.117 170.833Z" fill="#F5D749"/>
<path fill-rule="evenodd" clip-rule="evenodd" d="M478.748 170.833C497.596 170.833 512.874 155.537 512.874 136.667H444.622C444.622 155.537 459.9 170.833 478.748 170.833Z" fill="#EE5353"/>
<path d="M427.558 68.3335C418.135 68.3335 410.495 75.9817 410.495 85.4168C410.495 94.8519 418.135 102.5 427.558 102.5H444.622V85.4168C444.622 75.9817 436.982 68.3335 427.558 68.3335Z" fill="white"/>
<path fill-rule="evenodd" clip-rule="evenodd" d="M487.279 51.2502C487.279 55.9669 491.1 59.7918 495.811 59.7918H504.342V51.2502C504.342 46.5335 500.522 42.7085 495.811 42.7085C491.1 42.7085 487.279 46.5335 487.279 51.2502Z" fill="#EE5353"/>
<path fill-rule="evenodd" clip-rule="evenodd" d="M427.558 145.208C422.847 145.208 419.027 149.033 419.027 153.75V162.292H427.558C432.269 162.292 436.09 158.467 436.09 153.75C436.09 149.033 432.269 145.208 427.558 145.208Z" fill="#F5D749"/>
<path fill-rule="evenodd" clip-rule="evenodd" d="M529.937 0L512.874 17.0833L529.937 34.1667L547 17.0833L529.937 0Z" fill="#F5D749"/>
<path fill-rule="evenodd" clip-rule="evenodd" d="M529.937 8.54175L521.406 17.0834L529.937 25.6251L538.469 17.0834L529.937 8.54175Z" fill="#EE5353"/>
<path fill-rule="evenodd" clip-rule="evenodd" d="M529.937 93.9585L521.406 102.5L529.937 111.042L538.469 102.5L529.937 93.9585Z" fill="#3BA8C6"/>
<path d="M376.369 93.9583C371.657 93.9583 367.837 90.1341 367.837 85.4167C367.837 80.6992 371.657 76.875 376.369 76.875C381.081 76.875 384.9 80.6992 384.9 85.4167C384.9 90.1341 381.081 93.9583 376.369 93.9583Z" fill="#EE5353"/>
<path d="M495.811 93.9583C491.099 93.9583 487.279 90.1341 487.279 85.4167C487.279 80.6992 491.099 76.875 495.811 76.875C500.523 76.875 504.342 80.6992 504.342 85.4167C504.342 90.1341 500.523 93.9583 495.811 93.9583Z" fill="#F5D749"/>
<path d="M393.432 162.292C388.72 162.292 384.901 158.468 384.901 153.75C384.901 149.033 388.72 145.208 393.432 145.208C398.144 145.208 401.964 149.033 401.964 153.75C401.964 158.468 398.144 162.292 393.432 162.292Z" fill="#EE5353"/>
<path d="M529.937 145.208C525.225 145.208 521.406 141.384 521.406 136.667C521.406 131.949 525.225 128.125 529.937 128.125C534.649 128.125 538.469 131.949 538.469 136.667C538.469 141.384 534.649 145.208 529.937 145.208Z" fill="#3BA8C6"/>
<path d="M495.811 25.6251C491.099 25.6251 487.279 21.8008 487.279 17.0834C487.279 12.366 491.099 8.54175 495.811 8.54175C500.523 8.54175 504.342 12.366 504.342 17.0834C504.342 21.8008 500.523 25.6251 495.811 25.6251Z" fill="#F5D749"/>
<path fill-rule="evenodd" clip-rule="evenodd" d="M427.729 76.875L419.198 85.4167L427.729 93.9583L436.261 85.4167L427.729 76.875Z" fill="url(#paint0_linear)"/>
<path fill-rule="evenodd" clip-rule="evenodd" d="M291.054 8.54175L282.522 17.0834L291.054 25.6251L299.585 17.0834L291.054 8.54175Z" fill="#3BA8C6"/>
<path fill-rule="evenodd" clip-rule="evenodd" d="M188.504 17.0834L205.568 8.01086e-05L222.631 17.0834L205.568 34.1667L188.504 17.0834Z" fill="#EE5353"/>
<path fill-rule="evenodd" clip-rule="evenodd" d="M222.631 17.0834L239.694 8.01086e-05L256.757 17.0834L239.694 34.1667L222.631 17.0834Z" fill="#F5D749"/>
<path fill-rule="evenodd" clip-rule="evenodd" d="M205.567 8.01086e-05V34.1667H171.441L205.567 8.01086e-05Z" fill="#3BA8C6"/>
<path d="M103.189 34.1667H69.0628V8.01086e-05H103.189V34.1667Z" fill="#2E33B1"/>
<path d="M137.315 34.1667H103.189V8.01086e-05L137.315 34.1667Z" fill="white"/>
<path fill-rule="evenodd" clip-rule="evenodd" d="M103.189 8.01086e-05H137.315V34.1667L103.189 8.01086e-05Z" fill="#EE5353"/>
<path d="M273.82 34.1667H239.694V8.01086e-05L273.82 34.1667Z" fill="white"/>
<path fill-rule="evenodd" clip-rule="evenodd" d="M137.486 153.75C137.486 144.315 145.125 136.667 154.549 136.667H171.612V170.833H154.549C145.125 170.833 137.486 163.185 137.486 153.75Z" fill="#EE5353"/>
<path fill-rule="evenodd" clip-rule="evenodd" d="M120.423 102.5C110.999 102.5 103.36 94.8518 103.36 85.4167V68.3333H120.423C129.847 68.3333 137.486 75.9815 137.486 85.4167C137.486 94.8518 129.847 102.5 120.423 102.5Z" fill="#EE5353"/>
<path fill-rule="evenodd" clip-rule="evenodd" d="M120.252 93.9585C115.541 93.9585 111.721 90.1335 111.721 85.4168V76.8752H120.252C124.963 76.8752 128.784 80.7001 128.784 85.4168C128.784 90.1335 124.963 93.9585 120.252 93.9585Z" fill="#F5D749"/>
<path fill-rule="evenodd" clip-rule="evenodd" d="M35.1072 51.2502C35.1072 41.815 27.468 34.1668 18.0441 34.1668H0.980995V51.2502C0.980995 60.6853 8.62014 68.3335 18.0441 68.3335C27.468 68.3335 35.1072 60.6853 35.1072 51.2502Z" fill="#EE5353"/>
<path d="M69.2334 85.4167C69.2334 75.9815 76.8726 68.3333 86.2965 68.3333H103.36V85.4167C103.36 94.8518 95.7205 102.5 86.2965 102.5C76.8726 102.5 69.2334 94.8518 69.2334 85.4167Z" fill="#2E33B1"/>
<path fill-rule="evenodd" clip-rule="evenodd" d="M77.5941 85.4168C77.5941 80.7001 81.4146 76.8752 86.1257 76.8752H94.6572V85.4168C94.6572 90.1335 90.8368 93.9585 86.1257 93.9585C81.4146 93.9585 77.5941 90.1335 77.5941 85.4168Z" fill="#EE5353"/>
<path fill-rule="evenodd" clip-rule="evenodd" d="M146.188 153.75C146.188 149.033 150.008 145.208 154.719 145.208H163.251V153.75C163.251 158.467 159.431 162.292 154.719 162.292C150.008 162.292 146.188 158.467 146.188 153.75Z" fill="#F5D749"/>
<path fill-rule="evenodd" clip-rule="evenodd" d="M77.4237 17.0833C77.4237 12.3666 81.2441 8.54167 85.9553 8.54167H94.4868V17.0833C94.4868 21.8 90.6664 25.625 85.9553 25.625C81.2441 25.625 77.4237 21.8 77.4237 17.0833Z" fill="#3BA8C6"/>
<path d="M18.0441 8.01086e-05C8.62014 8.01086e-05 0.980995 7.64829 0.980995 17.0834V34.1667H18.0441C27.468 34.1667 35.1072 26.5185 35.1072 17.0834C35.1072 7.64829 27.468 8.01086e-05 18.0441 8.01086e-05Z" fill="#2E33B1"/>
<path fill-rule="evenodd" clip-rule="evenodd" d="M103.36 136.667C84.5118 136.667 69.2335 121.41 69.2335 102.587V102.5H137.486V102.587C137.486 121.41 122.208 136.667 103.36 136.667Z" fill="#F5D749"/>
<path fill-rule="evenodd" clip-rule="evenodd" d="M35.1072 68.3333C16.2593 68.3333 0.981033 83.6297 0.981033 102.5H69.2334C69.2334 83.6297 53.9551 68.3333 35.1072 68.3333Z" fill="#EE5353"/>
<path fill-rule="evenodd" clip-rule="evenodd" d="M35.1072 136.667V102.5H0.980995V136.667H35.1072Z" fill="#3BA8C6"/>
<path fill-rule="evenodd" clip-rule="evenodd" d="M256.927 153.75L239.864 136.667L256.927 119.583L273.99 136.667L256.927 153.75Z" fill="#EE5353"/>
<path d="M239.864 102.5L256.927 119.583L273.99 102.5H239.864Z" fill="white"/>
<path fill-rule="evenodd" clip-rule="evenodd" d="M18.2148 128.125L9.68325 119.583L18.2148 111.042L26.7463 119.583L18.2148 128.125Z" fill="#EE5353"/>
<path d="M17.8735 59.7917L9.34194 51.2501L17.8735 42.7084L26.405 51.2501L17.8735 59.7917Z" fill="white"/>
<path fill-rule="evenodd" clip-rule="evenodd" d="M137.4 170.748C137.4 151.973 122.122 136.752 103.274 136.752C84.4263 136.752 69.148 151.973 69.148 170.748H137.4ZM94.8279 153.75L103.359 162.292L111.891 153.75L103.359 145.208L94.8279 153.75Z" fill="#3BA8C6"/>
<path fill-rule="evenodd" clip-rule="evenodd" d="M205.738 153.75C205.738 144.315 213.377 136.667 222.801 136.667H239.864V170.833H222.801C213.377 170.833 205.738 163.185 205.738 153.75Z" fill="#F5D749"/>
<path fill-rule="evenodd" clip-rule="evenodd" d="M69.2334 51.2502C69.2334 41.815 76.8726 34.1668 86.2965 34.1668H103.36V68.3335H86.2965C76.8726 68.3335 69.2334 60.6853 69.2334 51.2502Z" fill="#EE5353"/>
<path fill-rule="evenodd" clip-rule="evenodd" d="M52.1703 8.01086e-05C42.7464 8.01086e-05 35.1072 7.64829 35.1072 17.0834V34.1667H69.2334V17.0834C69.2334 7.64829 61.5943 8.01086e-05 52.1703 8.01086e-05Z" fill="#EE5353"/>
<path fill-rule="evenodd" clip-rule="evenodd" d="M222.801 136.667C213.377 136.667 205.738 129.019 205.738 119.583C205.738 110.148 213.377 102.5 222.801 102.5H239.864V119.583C239.864 129.019 232.225 136.667 222.801 136.667Z" fill="#EE5353"/>
<path d="M188.675 136.667C179.251 136.667 171.612 129.019 171.612 119.583V102.5H188.675C198.099 102.5 205.738 110.148 205.738 119.583C205.738 129.019 198.099 136.667 188.675 136.667Z" fill="#2E33B1"/>
<path fill-rule="evenodd" clip-rule="evenodd" d="M155 0C164.389 0 172 7.6109 172 17V34H155C145.611 34 138 26.3891 138 17C138 7.6109 145.611 0 155 0Z" fill="#F5D749"/>
<path fill-rule="evenodd" clip-rule="evenodd" d="M273.99 170.833H239.864V136.667L273.99 170.833Z" fill="#3BA8C6"/>
<path fill-rule="evenodd" clip-rule="evenodd" d="M0.980995 170.833H35.1072V136.667L0.980995 170.833Z" fill="#F5D749"/>
<path d="M137.486 68.3335H103.36V34.1668L137.486 68.3335Z" fill="white"/>
<path d="M69.2334 68.3335V34.1668H35.1072L69.2334 68.3335Z" fill="white"/>
<path fill-rule="evenodd" clip-rule="evenodd" d="M103.36 34.1668H137.486V68.3335L103.36 34.1668Z" fill="#F5D749"/>
<path fill-rule="evenodd" clip-rule="evenodd" d="M35.1072 34.1668V68.3335H69.2334L35.1072 34.1668Z" fill="#F5D749"/>
<path d="M69.2334 136.667C69.2334 155.537 53.9551 170.833 35.1072 170.833V102.5C53.9551 102.5 69.2334 117.797 69.2334 136.667Z" fill="#2E33B1"/>
<path d="M154.549 136.667C145.125 136.667 137.486 129.019 137.486 119.583C137.486 110.148 145.125 102.5 154.549 102.5H171.612V119.583C171.612 129.019 163.973 136.667 154.549 136.667Z" fill="white"/>
<path fill-rule="evenodd" clip-rule="evenodd" d="M214.27 153.75C214.27 149.033 218.09 145.208 222.801 145.208H231.333V153.75C231.333 158.467 227.512 162.292 222.801 162.292C218.09 162.292 214.27 158.467 214.27 153.75Z" fill="#EE5353"/>
<path d="M103.36 111.042C98.6477 111.042 94.828 114.866 94.828 119.583C94.828 124.301 98.6477 128.125 103.36 128.125C108.071 128.125 111.891 124.301 111.891 119.583C111.891 114.866 108.071 111.042 103.36 111.042Z" fill="#EE5353"/>
<path d="M18.0441 8.54167C13.3323 8.54167 9.51259 12.3659 9.51259 17.0833C9.51259 21.8008 13.3323 25.625 18.0441 25.625C22.756 25.625 26.5757 21.8008 26.5757 17.0833C26.5757 12.3659 22.756 8.54167 18.0441 8.54167Z" fill="#3BA8C6"/>
<path d="M222.801 111.042C218.089 111.042 214.27 114.866 214.27 119.583C214.27 124.301 218.089 128.125 222.801 128.125C227.513 128.125 231.333 124.301 231.333 119.583C231.333 114.866 227.513 111.042 222.801 111.042Z" fill="#F5D749"/>
<path d="M120.423 42.7084C115.711 42.7084 111.891 46.5326 111.891 51.2501C111.891 55.9675 115.711 59.7917 120.423 59.7917C125.134 59.7917 128.954 55.9675 128.954 51.2501C128.954 46.5326 125.134 42.7084 120.423 42.7084Z" fill="#EE5353"/>
<path fill-rule="evenodd" clip-rule="evenodd" d="M52.1701 25.625L43.6386 17.0833L52.1701 8.54167L60.7017 17.0833L52.1701 25.625Z" fill="#F5D749"/>
<path fill-rule="evenodd" clip-rule="evenodd" d="M188.675 25.625L180.143 17.0833L188.675 8.54167L197.207 17.0833L188.675 25.625Z" fill="#F5D749"/>
<path fill-rule="evenodd" clip-rule="evenodd" d="M154.719 128.125L146.188 119.583L154.719 111.042L163.251 119.583L154.719 128.125Z" fill="url(#paint1_linear)"/>
<path fill-rule="evenodd" clip-rule="evenodd" d="M186.942 57C186.511 57 186.098 57.0239 185.704 57.0704C185.704 57.0704 185.704 57.0703 185.704 57.0703C185.704 57.0702 185.704 57.0701 185.704 57.0701L180.991 57.5602H175.799C175.358 57.5602 175 57.9185 175 58.3605V84.8313C175 85.2733 175.358 85.6316 175.799 85.6316H180.831C181.273 85.6316 181.63 85.2733 181.63 84.8313V78.3243C181.63 77.9556 181.949 77.6679 182.315 77.706L185.704 78.0585C185.704 78.0585 185.704 78.0583 185.704 78.0583C185.704 78.0582 185.704 78.0581 185.704 78.0581C186.098 78.1046 186.511 78.1285 186.942 78.1285C192.175 78.1285 196.488 73.5267 196.488 67.5643C196.488 61.6019 192.175 57 186.942 57ZM185.744 72.4462C182.988 72.4462 180.991 70.5655 180.991 67.5643C180.991 64.5631 182.988 62.6823 185.744 62.6823C188.5 62.6823 190.497 64.5631 190.497 67.5643C190.497 70.5655 188.5 72.4462 185.744 72.4462Z" fill="#3A31B3"/>
<path fill-rule="evenodd" clip-rule="evenodd" d="M208.472 57.0706L213.184 57.5602H218.376C218.817 57.5602 219.175 57.9185 219.175 58.3606V76.768C219.175 77.21 218.817 77.5683 218.376 77.5683H213.184L208.472 78.058C208.078 78.1046 207.665 78.1285 207.233 78.1285C202 78.1285 197.687 73.5267 197.687 67.5643C197.687 61.6019 202 57 207.233 57C207.665 57 208.078 57.024 208.472 57.0706ZM203.678 67.5643C203.678 70.5655 205.675 72.4462 208.431 72.4462C211.187 72.4462 213.184 70.5655 213.184 67.5643C213.184 64.5631 211.187 62.6823 208.431 62.6823C205.675 62.6823 203.678 64.5631 203.678 67.5643Z" fill="#3A31B3"/>
<path fill-rule="evenodd" clip-rule="evenodd" d="M254.125 57.0706L258.837 57.5602H264.029C264.47 57.5602 264.828 57.9185 264.828 58.3606V76.768C264.828 77.21 264.47 77.5683 264.029 77.5683H258.837L254.125 78.058C253.731 78.1046 253.317 78.1285 252.885 78.1285C247.653 78.1285 243.34 73.5267 243.34 67.5643C243.34 61.6019 247.653 57 252.885 57C253.317 57 253.731 57.024 254.125 57.0706ZM249.331 67.5643C249.331 70.5655 251.328 72.4462 254.084 72.4462C256.84 72.4462 258.837 70.5655 258.837 67.5643C258.837 64.5631 256.84 62.6823 254.084 62.6823C251.328 62.6823 249.331 64.5631 249.331 67.5643Z" fill="#3A31B3"/>
<path fill-rule="evenodd" clip-rule="evenodd" d="M278.568 57C278.136 57 277.724 57.0239 277.329 57.0704C277.329 57.0704 277.329 57.0703 277.329 57.0703C277.329 57.0702 277.329 57.0701 277.329 57.0701L272.616 57.5602H267.424C266.983 57.5602 266.625 57.9185 266.625 58.3605V84.231C266.625 84.673 266.983 85.0313 267.424 85.0313H272.457C272.898 85.0313 273.256 84.673 273.256 84.231V78.3243C273.256 77.9556 273.574 77.6679 273.94 77.706L277.329 78.0585C277.329 78.0585 277.329 78.0584 277.329 78.0584L277.329 78.0583C277.329 78.0582 277.329 78.0581 277.329 78.0581C277.724 78.1046 278.136 78.1285 278.568 78.1285C283.8 78.1285 288.114 73.5267 288.114 67.5643C288.114 61.6019 283.8 57 278.568 57ZM277.369 72.4462C274.614 72.4462 272.616 70.5655 272.616 67.5643C272.616 64.5631 274.614 62.6823 277.369 62.6823C280.125 62.6823 282.122 64.5631 282.122 67.5643C282.122 70.5655 280.125 72.4462 277.369 72.4462Z" fill="#3A31B3"/>
<path fill-rule="evenodd" clip-rule="evenodd" d="M300.215 57.0704C300.215 57.0704 300.215 57.0703 300.215 57.0703C300.215 57.0702 300.215 57.0701 300.215 57.0701L295.503 57.5602H290.31C289.869 57.5602 289.512 57.9185 289.512 58.3606V84.231C289.512 84.673 289.869 85.0313 290.31 85.0313H295.343C295.784 85.0313 296.142 84.673 296.142 84.231V78.3243C296.142 77.9556 296.46 77.6679 296.826 77.706L300.215 78.0585C300.215 78.0585 300.215 78.0584 300.215 78.0584C300.215 78.0584 300.215 78.0583 300.215 78.0583C300.215 78.0582 300.215 78.0581 300.215 78.0581C300.61 78.1046 301.023 78.1285 301.454 78.1285C306.686 78.1285 311 73.5267 311 67.5643C311 61.6019 306.686 57 301.454 57C301.023 57 300.61 57.0239 300.215 57.0704ZM300.256 72.4462C297.5 72.4462 295.503 70.5655 295.503 67.5643C295.503 64.5631 297.5 62.6823 300.256 62.6823C303.012 62.6823 305.009 64.5631 305.009 67.5643C305.009 70.5655 303.012 72.4462 300.256 72.4462Z" fill="#3A31B3"/>
<path d="M227.243 67.3642V58.3606C227.243 57.9185 226.886 57.5602 226.444 57.5602H221.631C221.19 57.5602 220.833 57.9185 220.833 58.3606V68.5647C220.833 73.8068 225.426 78.1285 231.377 78.1285C237.328 78.1285 241.922 73.8068 241.922 68.5647V58.3606C241.922 57.9185 241.564 57.5602 241.123 57.5602H236.31C235.869 57.5602 235.511 57.9185 235.511 58.3606V67.3642C235.511 69.9841 233.774 71.6259 231.377 71.6259C228.98 71.6259 227.243 69.9841 227.243 67.3642Z" fill="#3A31B3"/>
<path d="M221.631 79.147C221.408 78.6548 221.791 78.1285 222.33 78.1285H227.691C227.941 78.1285 228.172 78.2494 228.344 78.4312C229.081 79.2129 230.141 79.6492 231.377 79.6492C232.613 79.6492 233.673 79.2129 234.41 78.4312C234.582 78.2494 234.813 78.1285 235.063 78.1285H240.424C240.964 78.1285 241.347 78.6549 241.123 79.147C239.559 82.5879 235.852 85.0313 231.377 85.0313C227.683 85.0313 224.512 83.3663 222.639 80.8496C222.242 80.3176 221.904 79.7475 221.631 79.147Z" fill="#3A31B3"/>
<defs>
<linearGradient id="paint0_linear" x1="436.261" y1="76.8733" x2="419.306" y2="93.8084" gradientUnits="userSpaceOnUse">
<stop stop-color="#F8A738"/>
<stop offset="1" stop-color="#FCD06D"/>
</linearGradient>
<linearGradient id="paint1_linear" x1="163.251" y1="128.127" x2="146.296" y2="111.192" gradientUnits="userSpaceOnUse">
<stop stop-color="#F8A738"/>
<stop offset="1" stop-color="#FCD06D"/>
</linearGradient>
</defs>
</svg>
