<svg width="828" height="34" viewBox="0 0 828 34" fill="none" xmlns="http://www.w3.org/2000/svg">
<path fill-rule="evenodd" clip-rule="evenodd" d="M656.91 17.0833L673.973 34.1667L691.036 17.0833L673.973 0L656.91 17.0833Z" fill="#EE5353"/>
<path fill-rule="evenodd" clip-rule="evenodd" d="M622.784 17.0833L639.847 34.1667L656.91 17.0833L639.847 0L622.784 17.0833Z" fill="#F5D749"/>
<path fill-rule="evenodd" clip-rule="evenodd" d="M708.216 17.0833C708.216 26.5185 715.855 34.1667 725.279 34.1667H742.342V0H725.279C715.855 0 708.216 7.64821 708.216 17.0833Z" fill="#EE5353"/>
<path fill-rule="evenodd" clip-rule="evenodd" d="M716.918 17.0834C716.918 21.8001 720.739 25.6251 725.45 25.6251H733.981V17.0834C733.981 12.3667 730.161 8.54175 725.45 8.54175C720.739 8.54175 716.918 12.3667 716.918 17.0834Z" fill="#F5D749"/>
<path fill-rule="evenodd" clip-rule="evenodd" d="M708.099 34.1667V0H673.973L708.099 34.1667Z" fill="#3BA8C6"/>
<path d="M810.478 0H776.352V34.1667H810.478V0Z" fill="#2E33B1"/>
<path d="M554.531 17.0833L537.468 34.1667V0L554.531 17.0833Z" fill="white"/>
<path d="M588.658 17.0833L571.595 34.1667L554.532 17.0833L571.595 0L588.658 17.0833Z" fill="#2E33B1"/>
<path d="M776.352 0H742.225V34.1667L776.352 0Z" fill="white"/>
<path fill-rule="evenodd" clip-rule="evenodd" d="M742.225 34.1667H776.352V0L742.225 34.1667Z" fill="#EE5353"/>
<path fill-rule="evenodd" clip-rule="evenodd" d="M571.595 8.7738e-05V34.1667H605.721L571.595 8.7738e-05Z" fill="#3BA8C6"/>
<path fill-rule="evenodd" clip-rule="evenodd" d="M639.847 0H605.721V34.1667L639.847 0Z" fill="#3BA8C6"/>
<path fill-rule="evenodd" clip-rule="evenodd" d="M793.415 0L776.352 17.0833L793.415 34.1667L810.478 17.0833L793.415 0Z" fill="#F5D749"/>
<path fill-rule="evenodd" clip-rule="evenodd" d="M793.415 8.54175L784.883 17.0834L793.415 25.6251L801.946 17.0834L793.415 8.54175Z" fill="#EE5353"/>
<path d="M759.289 25.6251C754.577 25.6251 750.757 21.8008 750.757 17.0834C750.757 12.366 754.577 8.54175 759.289 8.54175C764.001 8.54175 767.82 12.366 767.82 17.0834C767.82 21.8008 764.001 25.6251 759.289 25.6251Z" fill="#F5D749"/>
<path fill-rule="evenodd" clip-rule="evenodd" d="M554.531 8.54175L546 17.0834L554.531 25.6251L563.063 17.0834L554.531 8.54175Z" fill="#3BA8C6"/>
<path fill-rule="evenodd" clip-rule="evenodd" d="M451.982 17.0834L469.045 8.39233e-05L486.108 17.0834L469.045 34.1667L451.982 17.0834Z" fill="#EE5353"/>
<path fill-rule="evenodd" clip-rule="evenodd" d="M486.109 17.0834L503.172 8.39233e-05L520.235 17.0834L503.172 34.1667L486.109 17.0834Z" fill="#F5D749"/>
<path fill-rule="evenodd" clip-rule="evenodd" d="M469.045 8.39233e-05V34.1667H434.919L469.045 8.39233e-05Z" fill="#3BA8C6"/>
<path d="M366.667 34.1667H332.541V8.39233e-05H366.667V34.1667Z" fill="#2E33B1"/>
<path d="M400.793 34.1667H366.667V8.39233e-05L400.793 34.1667Z" fill="white"/>
<path fill-rule="evenodd" clip-rule="evenodd" d="M366.667 8.39233e-05H400.793V34.1667L366.667 8.39233e-05Z" fill="#EE5353"/>
<path d="M537.298 34.1667H503.172V8.39233e-05L537.298 34.1667Z" fill="white"/>
<path fill-rule="evenodd" clip-rule="evenodd" d="M340.902 17.0833C340.902 12.3666 344.722 8.54167 349.433 8.54167H357.965V17.0833C357.965 21.8 354.144 25.625 349.433 25.625C344.722 25.625 340.902 21.8 340.902 17.0833Z" fill="#3BA8C6"/>
<path d="M281.522 8.39233e-05C272.098 8.39233e-05 264.459 7.64829 264.459 17.0834V34.1667H281.522C290.946 34.1667 298.585 26.5185 298.585 17.0834C298.585 7.64829 290.946 8.39233e-05 281.522 8.39233e-05Z" fill="#2E33B1"/>
<path fill-rule="evenodd" clip-rule="evenodd" d="M818.747 26.0833L810.216 17.5416L818.747 8.9999L827.279 17.5416L818.747 26.0833Z" fill="#EE5353"/>
<path fill-rule="evenodd" clip-rule="evenodd" d="M315.648 8.39233e-05C306.224 8.39233e-05 298.585 7.64829 298.585 17.0834V34.1667H332.711V17.0834C332.711 7.64829 325.072 8.39233e-05 315.648 8.39233e-05Z" fill="#EE5353"/>
<path fill-rule="evenodd" clip-rule="evenodd" d="M418.478 -3.8147e-06C427.867 -3.8147e-06 435.478 7.6109 435.478 17V34H418.478C409.089 34 401.478 26.3891 401.478 17C401.478 7.6109 409.089 -3.8147e-06 418.478 -3.8147e-06Z" fill="#F5D749"/>
<path d="M281.522 8.54167C276.81 8.54167 272.991 12.3659 272.991 17.0833C272.991 21.8008 276.81 25.625 281.522 25.625C286.234 25.625 290.054 21.8008 290.054 17.0833C290.054 12.3659 286.234 8.54167 281.522 8.54167Z" fill="#3BA8C6"/>
<path fill-rule="evenodd" clip-rule="evenodd" d="M315.648 25.625L307.116 17.0833L315.648 8.54167L324.18 17.0833L315.648 25.625Z" fill="#F5D749"/>
<path fill-rule="evenodd" clip-rule="evenodd" d="M452.153 25.625L443.621 17.0833L452.153 8.54167L460.684 17.0833L452.153 25.625Z" fill="#F5D749"/>
<path fill-rule="evenodd" clip-rule="evenodd" d="M110.91 17.0833L127.973 34.1667L145.036 17.0833L127.973 0L110.91 17.0833Z" fill="#EE5353"/>
<path fill-rule="evenodd" clip-rule="evenodd" d="M76.7838 17.0833L93.8469 34.1667L110.91 17.0833L93.8469 0L76.7838 17.0833Z" fill="#F5D749"/>
<path fill-rule="evenodd" clip-rule="evenodd" d="M162.099 34.1667V0H127.973L162.099 34.1667Z" fill="#3BA8C6"/>
<path d="M264.478 0H230.352V34.1667H264.478V0Z" fill="#2E33B1"/>
<path d="M179.279 0L162.216 17.0833L179.279 34.1667L196.342 17.0833L179.279 0Z" fill="#2E33B1"/>
<path d="M42.6576 17.0833L25.5945 34.1667L8.53141 17.0833L25.5945 0L42.6576 17.0833Z" fill="#2E33B1"/>
<path d="M230.352 0H196.225V34.1667L230.352 0Z" fill="white"/>
<path fill-rule="evenodd" clip-rule="evenodd" d="M196.225 34.1667H230.352V0L196.225 34.1667Z" fill="#EE5353"/>
<path fill-rule="evenodd" clip-rule="evenodd" d="M25.5946 8.7738e-05V34.1667H59.7208L25.5946 8.7738e-05Z" fill="#3BA8C6"/>
<path fill-rule="evenodd" clip-rule="evenodd" d="M93.847 0H59.7209V34.1667L93.847 0Z" fill="#3BA8C6"/>
<path fill-rule="evenodd" clip-rule="evenodd" d="M247.415 0L230.352 17.0833L247.415 34.1667L264.478 17.0833L247.415 0Z" fill="#F5D749"/>
<path fill-rule="evenodd" clip-rule="evenodd" d="M247.415 8.54175L238.883 17.0834L247.415 25.6251L255.946 17.0834L247.415 8.54175Z" fill="#EE5353"/>
<path d="M179.279 25.6248C174.567 25.6248 170.748 21.8006 170.748 17.0832C170.748 12.3657 174.567 8.5415 179.279 8.5415C183.991 8.5415 187.811 12.3657 187.811 17.0832C187.811 21.8006 183.991 25.6248 179.279 25.6248Z" fill="#3BA8C6"/>
<path d="M213.289 25.6251C208.577 25.6251 204.757 21.8008 204.757 17.0834C204.757 12.366 208.577 8.54175 213.289 8.54175C218 8.54175 221.82 12.366 221.82 17.0834C221.82 21.8008 218 25.6251 213.289 25.6251Z" fill="#F5D749"/>
<path fill-rule="evenodd" clip-rule="evenodd" d="M8.53157 8.54175L2.28882e-05 17.0834L8.53157 25.6251L17.0631 17.0834L8.53157 8.54175Z" fill="#3BA8C6"/>
</svg>
