<svg width="888" height="172" viewBox="0 0 888 172" fill="none" xmlns="http://www.w3.org/2000/svg">
<path fill-rule="evenodd" clip-rule="evenodd" d="M734.432 17.0833L751.495 34.1667L768.558 17.0833L751.495 0L734.432 17.0833Z" fill="#EE5353"/>
<path fill-rule="evenodd" clip-rule="evenodd" d="M512.874 154.083L529.937 171.167L547 154.083L529.937 137L512.874 154.083Z" fill="#EE5353"/>
<path fill-rule="evenodd" clip-rule="evenodd" d="M700.306 17.0833L717.369 34.1667L734.432 17.0833L717.369 0L700.306 17.0833Z" fill="#F5D749"/>
<path fill-rule="evenodd" clip-rule="evenodd" d="M751.495 51.25C751.495 60.6851 759.134 68.3333 768.558 68.3333H785.621V34.1666H768.558C759.134 34.1666 751.495 41.8148 751.495 51.25Z" fill="#EE5353"/>
<path fill-rule="evenodd" clip-rule="evenodd" d="M734.432 102.5C725.008 102.5 717.369 110.148 717.369 119.583V136.667H734.432C743.856 136.667 751.495 129.018 751.495 119.583C751.495 110.148 743.856 102.5 734.432 102.5Z" fill="#EE5353"/>
<path fill-rule="evenodd" clip-rule="evenodd" d="M734.261 111.042C729.55 111.042 725.73 114.867 725.73 119.583V128.125H734.261C738.973 128.125 742.793 124.3 742.793 119.583C742.793 114.867 738.973 111.042 734.261 111.042Z" fill="#F5D749"/>
<path fill-rule="evenodd" clip-rule="evenodd" d="M649.117 153.75C649.117 163.185 641.478 170.833 632.054 170.833H614.991V153.75C614.991 144.315 622.63 136.667 632.054 136.667C641.478 136.667 649.117 144.315 649.117 153.75Z" fill="#EE5353"/>
<path d="M683.243 119.583C683.243 129.018 690.882 136.667 700.306 136.667H717.369V119.583C717.369 110.148 709.73 102.5 700.306 102.5C690.882 102.5 683.243 110.148 683.243 119.583Z" fill="#2E33B1"/>
<path fill-rule="evenodd" clip-rule="evenodd" d="M691.604 119.583C691.604 124.3 695.424 128.125 700.135 128.125H708.667V119.583C708.667 114.867 704.846 111.042 700.135 111.042C695.424 111.042 691.604 114.867 691.604 119.583Z" fill="#EE5353"/>
<path fill-rule="evenodd" clip-rule="evenodd" d="M760.197 51.25C760.197 55.9667 764.018 59.7917 768.729 59.7917H777.26V51.25C777.26 46.5333 773.44 42.7084 768.729 42.7084C764.018 42.7084 760.197 46.5333 760.197 51.25Z" fill="#F5D749"/>
<path fill-rule="evenodd" clip-rule="evenodd" d="M717.369 68.3334C698.521 68.3334 683.243 83.5905 683.243 102.413V102.5H751.495V102.413C751.495 83.5905 736.217 68.3334 717.369 68.3334Z" fill="#F5D749"/>
<path d="M751.495 136.667C751.495 155.537 766.773 170.833 785.621 170.833V102.5C766.773 102.5 751.495 117.796 751.495 136.667Z" fill="#2E33B1"/>
<path fill-rule="evenodd" clip-rule="evenodd" d="M649.117 136.667C630.269 136.667 614.991 121.37 614.991 102.5H683.243C683.243 121.37 667.965 136.667 649.117 136.667Z" fill="#EE5353"/>
<path fill-rule="evenodd" clip-rule="evenodd" d="M785.621 34.1667V0H751.495L785.621 34.1667Z" fill="#3BA8C6"/>
<path d="M888 0H853.874V34.1667H888V0Z" fill="#2E33B1"/>
<path fill-rule="evenodd" clip-rule="evenodd" d="M819.748 102.5H785.621V136.667H819.748V102.5Z" fill="#3BA8C6"/>
<path fill-rule="evenodd" clip-rule="evenodd" d="M870.937 51.25L853.874 68.3333L870.937 85.4167L888 68.3333L870.937 51.25Z" fill="#EE5353"/>
<path fill-rule="evenodd" clip-rule="evenodd" d="M802.514 102.5L785.451 119.583L802.514 136.667L819.577 119.583L802.514 102.5Z" fill="#EE5353"/>
<path d="M870.937 85.4166L853.874 102.5L870.937 119.583L888 102.5L870.937 85.4166Z" fill="white"/>
<path d="M631.883 145.208L623.351 153.75L631.883 162.292L640.415 153.75L631.883 145.208Z" fill="white"/>
<path fill-rule="evenodd" clip-rule="evenodd" d="M751.41 34.2522C751.41 53.0268 736.132 68.248 717.284 68.248C698.436 68.248 683.158 53.0268 683.158 34.2522H751.41ZM708.837 51.2501L717.369 42.7084L725.901 51.2501L717.369 59.7918L708.837 51.2501Z" fill="#3BA8C6"/>
<path d="M632.053 17.0833L614.99 34.1667V0L632.053 17.0833Z" fill="white"/>
<path d="M870.937 119.583L853.874 136.667L870.937 153.75L888 136.667L870.937 119.583Z" fill="#2E33B1"/>
<path d="M666.18 17.0833L649.117 34.1667L632.054 17.0833L649.117 0L666.18 17.0833Z" fill="#2E33B1"/>
<path fill-rule="evenodd" clip-rule="evenodd" d="M819.748 51.25C819.748 60.6851 827.387 68.3333 836.811 68.3333H853.874V34.1666H836.811C827.387 34.1666 819.748 41.8148 819.748 51.25Z" fill="#F5D749"/>
<path fill-rule="evenodd" clip-rule="evenodd" d="M683.243 153.75C683.243 163.185 690.882 170.833 700.306 170.833H717.369V136.667H700.306C690.882 136.667 683.243 144.315 683.243 153.75Z" fill="#EE5353"/>
<path fill-rule="evenodd" clip-rule="evenodd" d="M836.811 68.3334C827.387 68.3334 819.748 75.9816 819.748 85.4167C819.748 94.8518 827.387 102.5 836.811 102.5H853.874V85.4167C853.874 75.9816 846.235 68.3334 836.811 68.3334Z" fill="#EE5353"/>
<path d="M802.684 68.3334C793.261 68.3334 785.621 75.9816 785.621 85.4167V102.5H802.684C812.108 102.5 819.748 94.8518 819.748 85.4167C819.748 75.9816 812.108 68.3334 802.684 68.3334Z" fill="#2E33B1"/>
<path fill-rule="evenodd" clip-rule="evenodd" d="M819.748 34.1667C819.748 15.2964 804.469 0 785.621 0V68.3333C804.469 68.3333 819.748 53.0369 819.748 34.1667Z" fill="#F5D749"/>
<path d="M853.874 0H819.748V34.1667L853.874 0Z" fill="white"/>
<path fill-rule="evenodd" clip-rule="evenodd" d="M819.748 34.1667H853.874V0L819.748 34.1667Z" fill="#EE5353"/>
<path fill-rule="evenodd" clip-rule="evenodd" d="M888 34.1666H853.874V68.3333L888 34.1666Z" fill="#3BA8C6"/>
<path fill-rule="evenodd" clip-rule="evenodd" d="M853.874 170.833H888V136.667L853.874 170.833Z" fill="#3BA8C6"/>
<path fill-rule="evenodd" clip-rule="evenodd" d="M649.117 -3.8147e-05V34.1666H683.243L649.117 -3.8147e-05Z" fill="#3BA8C6"/>
<path fill-rule="evenodd" clip-rule="evenodd" d="M853.874 136.667V102.5H819.748L853.874 136.667Z" fill="#F5D749"/>
<path d="M751.495 136.667H717.369V170.833L751.495 136.667Z" fill="white"/>
<path d="M683.243 136.667V170.833H649.117L683.243 136.667Z" fill="white"/>
<path fill-rule="evenodd" clip-rule="evenodd" d="M717.369 0H683.243V34.1667L717.369 0Z" fill="#3BA8C6"/>
<path fill-rule="evenodd" clip-rule="evenodd" d="M717.369 170.833H751.495V136.667L717.369 170.833Z" fill="#F5D749"/>
<path fill-rule="evenodd" clip-rule="evenodd" d="M649.117 170.833V136.667H683.243L649.117 170.833Z" fill="#F5D749"/>
<path fill-rule="evenodd" clip-rule="evenodd" d="M819.748 170.833C838.595 170.833 853.874 155.537 853.874 136.667H785.621C785.621 155.537 800.9 170.833 819.748 170.833Z" fill="#EE5353"/>
<path d="M768.558 68.3334C759.134 68.3334 751.495 75.9816 751.495 85.4167C751.495 94.8518 759.134 102.5 768.558 102.5H785.621V85.4167C785.621 75.9816 777.982 68.3334 768.558 68.3334Z" fill="white"/>
<path fill-rule="evenodd" clip-rule="evenodd" d="M828.279 51.25C828.279 55.9667 832.1 59.7917 836.811 59.7917H845.342V51.25C845.342 46.5333 841.522 42.7084 836.811 42.7084C832.1 42.7084 828.279 46.5333 828.279 51.25Z" fill="#EE5353"/>
<path fill-rule="evenodd" clip-rule="evenodd" d="M768.558 145.208C763.847 145.208 760.027 149.033 760.027 153.75V162.292H768.558C773.269 162.292 777.09 158.467 777.09 153.75C777.09 149.033 773.269 145.208 768.558 145.208Z" fill="#F5D749"/>
<path fill-rule="evenodd" clip-rule="evenodd" d="M870.937 0L853.874 17.0833L870.937 34.1667L888 17.0833L870.937 0Z" fill="#F5D749"/>
<path fill-rule="evenodd" clip-rule="evenodd" d="M870.937 8.54163L862.405 17.0833L870.937 25.625L879.469 17.0833L870.937 8.54163Z" fill="#EE5353"/>
<path fill-rule="evenodd" clip-rule="evenodd" d="M870.937 93.9584L862.405 102.5L870.937 111.042L879.469 102.5L870.937 93.9584Z" fill="#3BA8C6"/>
<path d="M717.369 93.9583C712.657 93.9583 708.838 90.1341 708.838 85.4167C708.838 80.6992 712.657 76.875 717.369 76.875C722.081 76.875 725.901 80.6992 725.901 85.4167C725.901 90.1341 722.081 93.9583 717.369 93.9583Z" fill="#EE5353"/>
<path d="M836.811 93.9583C832.099 93.9583 828.279 90.1341 828.279 85.4167C828.279 80.6992 832.099 76.875 836.811 76.875C841.523 76.875 845.342 80.6992 845.342 85.4167C845.342 90.1341 841.523 93.9583 836.811 93.9583Z" fill="#F5D749"/>
<path d="M734.432 162.292C729.72 162.292 725.901 158.467 725.901 153.75C725.901 149.033 729.72 145.208 734.432 145.208C739.144 145.208 742.964 149.033 742.964 153.75C742.964 158.467 739.144 162.292 734.432 162.292Z" fill="#EE5353"/>
<path d="M870.937 145.208C866.225 145.208 862.405 141.384 862.405 136.667C862.405 131.949 866.225 128.125 870.937 128.125C875.649 128.125 879.469 131.949 879.469 136.667C879.469 141.384 875.649 145.208 870.937 145.208Z" fill="#3BA8C6"/>
<path d="M836.811 25.625C832.099 25.625 828.279 21.8007 828.279 17.0833C828.279 12.3659 832.099 8.54163 836.811 8.54163C841.523 8.54163 845.342 12.3659 845.342 17.0833C845.342 21.8007 841.523 25.625 836.811 25.625Z" fill="#F5D749"/>
<path fill-rule="evenodd" clip-rule="evenodd" d="M768.729 76.875L760.197 85.4167L768.729 93.9583L777.26 85.4167L768.729 76.875Z" fill="url(#paint0_linear)"/>
<path fill-rule="evenodd" clip-rule="evenodd" d="M632.054 8.54163L623.522 17.0833L632.054 25.625L640.585 17.0833L632.054 8.54163Z" fill="#3BA8C6"/>
<path fill-rule="evenodd" clip-rule="evenodd" d="M529.504 17.0833L546.568 -4.19617e-05L563.631 17.0833L546.568 34.1666L529.504 17.0833Z" fill="#EE5353"/>
<path fill-rule="evenodd" clip-rule="evenodd" d="M563.631 17.0833L580.694 -4.19617e-05L597.757 17.0833L580.694 34.1666L563.631 17.0833Z" fill="#F5D749"/>
<path fill-rule="evenodd" clip-rule="evenodd" d="M546.567 -4.19617e-05V34.1666H512.441L546.567 -4.19617e-05Z" fill="#3BA8C6"/>
<path d="M444.189 34.1666H410.063V-4.19617e-05H444.189V34.1666Z" fill="#2E33B1"/>
<path d="M478.315 34.1666H444.189V-4.19617e-05L478.315 34.1666Z" fill="white"/>
<path fill-rule="evenodd" clip-rule="evenodd" d="M444.189 -4.19617e-05H478.315V34.1666L444.189 -4.19617e-05Z" fill="#EE5353"/>
<path d="M614.82 34.1666H580.694V-4.19617e-05L614.82 34.1666Z" fill="white"/>
<path fill-rule="evenodd" clip-rule="evenodd" d="M478.486 153.75C478.486 144.315 486.125 136.667 495.549 136.667H512.612V170.833H495.549C486.125 170.833 478.486 163.185 478.486 153.75Z" fill="#EE5353"/>
<path fill-rule="evenodd" clip-rule="evenodd" d="M461.423 102.5C451.999 102.5 444.36 94.8518 444.36 85.4167V68.3333H461.423C470.847 68.3333 478.486 75.9815 478.486 85.4167C478.486 94.8518 470.847 102.5 461.423 102.5Z" fill="#EE5353"/>
<path fill-rule="evenodd" clip-rule="evenodd" d="M461.252 93.9584C456.541 93.9584 452.72 90.1334 452.72 85.4167V76.875H461.252C465.963 76.875 469.784 80.7 469.784 85.4167C469.784 90.1334 465.963 93.9584 461.252 93.9584Z" fill="#F5D749"/>
<path fill-rule="evenodd" clip-rule="evenodd" d="M376.107 51.25C376.107 41.8149 368.468 34.1667 359.044 34.1667H341.981V51.25C341.981 60.6852 349.62 68.3334 359.044 68.3334C368.468 68.3334 376.107 60.6852 376.107 51.25Z" fill="#EE5353"/>
<path d="M410.233 85.4167C410.233 75.9815 417.873 68.3333 427.297 68.3333H444.36V85.4167C444.36 94.8518 436.72 102.5 427.297 102.5C417.873 102.5 410.233 94.8518 410.233 85.4167Z" fill="#2E33B1"/>
<path fill-rule="evenodd" clip-rule="evenodd" d="M418.594 85.4167C418.594 80.7 422.415 76.875 427.126 76.875H435.657V85.4167C435.657 90.1334 431.837 93.9584 427.126 93.9584C422.415 93.9584 418.594 90.1334 418.594 85.4167Z" fill="#EE5353"/>
<path fill-rule="evenodd" clip-rule="evenodd" d="M487.188 153.75C487.188 149.033 491.008 145.208 495.719 145.208H504.251V153.75C504.251 158.467 500.431 162.292 495.719 162.292C491.008 162.292 487.188 158.467 487.188 153.75Z" fill="#F5D749"/>
<path fill-rule="evenodd" clip-rule="evenodd" d="M418.424 17.0833C418.424 12.3666 422.244 8.54167 426.955 8.54167H435.487V17.0833C435.487 21.8 431.666 25.625 426.955 25.625C422.244 25.625 418.424 21.8 418.424 17.0833Z" fill="#3BA8C6"/>
<path d="M359.044 -4.19617e-05C349.62 -4.19617e-05 341.981 7.64817 341.981 17.0833V34.1666H359.044C368.468 34.1666 376.107 26.5184 376.107 17.0833C376.107 7.64817 368.468 -4.19617e-05 359.044 -4.19617e-05Z" fill="#2E33B1"/>
<path fill-rule="evenodd" clip-rule="evenodd" d="M444.36 136.667C425.512 136.667 410.233 121.41 410.233 102.587V102.5H478.486V102.587C478.486 121.41 463.207 136.667 444.36 136.667Z" fill="#F5D749"/>
<path fill-rule="evenodd" clip-rule="evenodd" d="M376.107 68.3333C357.259 68.3333 341.981 83.6297 341.981 102.5H410.233C410.233 83.6297 394.955 68.3333 376.107 68.3333Z" fill="#EE5353"/>
<path fill-rule="evenodd" clip-rule="evenodd" d="M376.107 136.667V102.5H341.981V136.667H376.107Z" fill="#3BA8C6"/>
<path fill-rule="evenodd" clip-rule="evenodd" d="M597.927 153.75L580.864 136.667L597.927 119.583L614.99 136.667L597.927 153.75Z" fill="#EE5353"/>
<path d="M580.864 102.5L597.927 119.583L614.99 102.5H580.864Z" fill="white"/>
<path fill-rule="evenodd" clip-rule="evenodd" d="M359.215 128.125L350.683 119.583L359.215 111.042L367.746 119.583L359.215 128.125Z" fill="#EE5353"/>
<path d="M358.873 59.7916L350.342 51.25L358.873 42.7083L367.405 51.25L358.873 59.7916Z" fill="white"/>
<path fill-rule="evenodd" clip-rule="evenodd" d="M478.4 170.748C478.4 151.973 463.122 136.752 444.274 136.752C425.426 136.752 410.148 151.973 410.148 170.748H478.4ZM435.828 153.75L444.359 162.292L452.891 153.75L444.359 145.208L435.828 153.75Z" fill="#3BA8C6"/>
<path fill-rule="evenodd" clip-rule="evenodd" d="M546.738 153.75C546.738 144.315 554.377 136.667 563.801 136.667H580.864V170.833H563.801C554.377 170.833 546.738 163.185 546.738 153.75Z" fill="#F5D749"/>
<path fill-rule="evenodd" clip-rule="evenodd" d="M410.233 51.25C410.233 41.8149 417.873 34.1667 427.297 34.1667H444.36V68.3334H427.297C417.873 68.3334 410.233 60.6852 410.233 51.25Z" fill="#EE5353"/>
<path fill-rule="evenodd" clip-rule="evenodd" d="M393.17 -4.19617e-05C383.746 -4.19617e-05 376.107 7.64817 376.107 17.0833V34.1666H410.233V17.0833C410.233 7.64817 402.594 -4.19617e-05 393.17 -4.19617e-05Z" fill="#EE5353"/>
<path fill-rule="evenodd" clip-rule="evenodd" d="M563.801 136.667C554.377 136.667 546.738 129.018 546.738 119.583C546.738 110.148 554.377 102.5 563.801 102.5H580.864V119.583C580.864 129.018 573.225 136.667 563.801 136.667Z" fill="#EE5353"/>
<path d="M529.675 136.667C520.251 136.667 512.612 129.018 512.612 119.583V102.5H529.675C539.099 102.5 546.738 110.148 546.738 119.583C546.738 129.018 539.099 136.667 529.675 136.667Z" fill="#2E33B1"/>
<path fill-rule="evenodd" clip-rule="evenodd" d="M496 0C505.389 0 513 7.6109 513 17V34H496C486.611 34 479 26.3891 479 17C479 7.6109 486.611 0 496 0Z" fill="#F5D749"/>
<path fill-rule="evenodd" clip-rule="evenodd" d="M614.99 170.833H580.864V136.667L614.99 170.833Z" fill="#3BA8C6"/>
<path fill-rule="evenodd" clip-rule="evenodd" d="M341.981 170.833H376.107V136.667L341.981 170.833Z" fill="#F5D749"/>
<path d="M478.486 68.3334H444.36V34.1667L478.486 68.3334Z" fill="white"/>
<path d="M410.233 68.3334V34.1667H376.107L410.233 68.3334Z" fill="white"/>
<path fill-rule="evenodd" clip-rule="evenodd" d="M444.36 34.1667H478.486V68.3334L444.36 34.1667Z" fill="#F5D749"/>
<path fill-rule="evenodd" clip-rule="evenodd" d="M376.107 34.1667V68.3334H410.233L376.107 34.1667Z" fill="#F5D749"/>
<path d="M410.233 136.667C410.233 155.537 394.955 170.833 376.107 170.833V102.5C394.955 102.5 410.233 117.796 410.233 136.667Z" fill="#2E33B1"/>
<path d="M495.549 136.667C486.125 136.667 478.486 129.018 478.486 119.583C478.486 110.148 486.125 102.5 495.549 102.5H512.612V119.583C512.612 129.018 504.973 136.667 495.549 136.667Z" fill="white"/>
<path fill-rule="evenodd" clip-rule="evenodd" d="M555.27 153.75C555.27 149.033 559.09 145.208 563.801 145.208H572.333V153.75C572.333 158.467 568.512 162.292 563.801 162.292C559.09 162.292 555.27 158.467 555.27 153.75Z" fill="#EE5353"/>
<path d="M444.36 111.042C439.648 111.042 435.828 114.866 435.828 119.583C435.828 124.301 439.648 128.125 444.36 128.125C449.071 128.125 452.891 124.301 452.891 119.583C452.891 114.866 449.071 111.042 444.36 111.042Z" fill="#EE5353"/>
<path d="M359.044 8.54167C354.332 8.54167 350.513 12.3659 350.513 17.0833C350.513 21.8008 354.332 25.625 359.044 25.625C363.756 25.625 367.576 21.8008 367.576 17.0833C367.576 12.3659 363.756 8.54167 359.044 8.54167Z" fill="#3BA8C6"/>
<path d="M563.801 111.042C559.089 111.042 555.27 114.866 555.27 119.583C555.27 124.301 559.089 128.125 563.801 128.125C568.513 128.125 572.333 124.301 572.333 119.583C572.333 114.866 568.513 111.042 563.801 111.042Z" fill="#F5D749"/>
<path d="M461.423 42.7083C456.711 42.7083 452.891 46.5325 452.891 51.25C452.891 55.9674 456.711 59.7916 461.423 59.7916C466.135 59.7916 469.954 55.9674 469.954 51.25C469.954 46.5325 466.135 42.7083 461.423 42.7083Z" fill="#EE5353"/>
<path fill-rule="evenodd" clip-rule="evenodd" d="M393.17 25.625L384.639 17.0833L393.17 8.54167L401.702 17.0833L393.17 25.625Z" fill="#F5D749"/>
<path fill-rule="evenodd" clip-rule="evenodd" d="M529.675 25.625L521.143 17.0833L529.675 8.54167L538.207 17.0833L529.675 25.625Z" fill="#F5D749"/>
<path fill-rule="evenodd" clip-rule="evenodd" d="M495.719 128.125L487.188 119.583L495.719 111.042L504.251 119.583L495.719 128.125Z" fill="url(#paint1_linear)"/>
<path fill-rule="evenodd" clip-rule="evenodd" d="M527.942 57C527.511 57 527.098 57.0239 526.704 57.0704C526.704 57.0704 526.704 57.0703 526.704 57.0703C526.704 57.0702 526.704 57.0701 526.704 57.0701L521.991 57.5602H516.799C516.358 57.5602 516 57.9185 516 58.3605V84.8313C516 85.2733 516.358 85.6316 516.799 85.6316H521.831C522.273 85.6316 522.63 85.2733 522.63 84.8313V78.3243C522.63 77.9556 522.949 77.6679 523.315 77.706L526.704 78.0585C526.704 78.0585 526.704 78.0583 526.704 78.0583C526.704 78.0582 526.704 78.0581 526.704 78.0581C527.098 78.1046 527.511 78.1285 527.942 78.1285C533.175 78.1285 537.488 73.5267 537.488 67.5643C537.488 61.6019 533.175 57 527.942 57ZM526.744 72.4462C523.988 72.4462 521.991 70.5655 521.991 67.5643C521.991 64.5631 523.988 62.6823 526.744 62.6823C529.5 62.6823 531.497 64.5631 531.497 67.5643C531.497 70.5655 529.5 72.4462 526.744 72.4462Z" fill="white"/>
<path fill-rule="evenodd" clip-rule="evenodd" d="M549.472 57.0706L554.184 57.5602H559.376C559.817 57.5602 560.175 57.9185 560.175 58.3606V76.768C560.175 77.21 559.817 77.5683 559.376 77.5683H554.184L549.472 78.058C549.078 78.1046 548.665 78.1285 548.233 78.1285C543 78.1285 538.687 73.5267 538.687 67.5643C538.687 61.6019 543 57 548.233 57C548.665 57 549.078 57.024 549.472 57.0706ZM544.678 67.5643C544.678 70.5655 546.675 72.4462 549.431 72.4462C552.187 72.4462 554.184 70.5655 554.184 67.5643C554.184 64.5631 552.187 62.6823 549.431 62.6823C546.675 62.6823 544.678 64.5631 544.678 67.5643Z" fill="white"/>
<path fill-rule="evenodd" clip-rule="evenodd" d="M595.125 57.0706L599.837 57.5602H605.029C605.47 57.5602 605.828 57.9185 605.828 58.3606V76.768C605.828 77.21 605.47 77.5683 605.029 77.5683H599.837L595.125 78.058C594.731 78.1046 594.317 78.1285 593.885 78.1285C588.653 78.1285 584.34 73.5267 584.34 67.5643C584.34 61.6019 588.653 57 593.885 57C594.317 57 594.731 57.024 595.125 57.0706ZM590.331 67.5643C590.331 70.5655 592.328 72.4462 595.084 72.4462C597.84 72.4462 599.837 70.5655 599.837 67.5643C599.837 64.5631 597.84 62.6823 595.084 62.6823C592.328 62.6823 590.331 64.5631 590.331 67.5643Z" fill="white"/>
<path fill-rule="evenodd" clip-rule="evenodd" d="M619.568 57C619.136 57 618.724 57.0239 618.329 57.0704C618.329 57.0704 618.329 57.0703 618.329 57.0703C618.329 57.0702 618.329 57.0701 618.329 57.0701L613.616 57.5602H608.424C607.983 57.5602 607.625 57.9185 607.625 58.3605V84.231C607.625 84.673 607.983 85.0313 608.424 85.0313H613.457C613.898 85.0313 614.256 84.673 614.256 84.231V78.3243C614.256 77.9556 614.574 77.6679 614.94 77.706L618.329 78.0585C618.329 78.0585 618.329 78.0584 618.329 78.0584L618.329 78.0583C618.329 78.0582 618.329 78.0581 618.329 78.0581C618.724 78.1046 619.136 78.1285 619.568 78.1285C624.8 78.1285 629.114 73.5267 629.114 67.5643C629.114 61.6019 624.8 57 619.568 57ZM618.369 72.4462C615.614 72.4462 613.616 70.5655 613.616 67.5643C613.616 64.5631 615.614 62.6823 618.369 62.6823C621.125 62.6823 623.122 64.5631 623.122 67.5643C623.122 70.5655 621.125 72.4462 618.369 72.4462Z" fill="white"/>
<path fill-rule="evenodd" clip-rule="evenodd" d="M641.215 57.0704C641.215 57.0704 641.215 57.0703 641.215 57.0703C641.215 57.0702 641.215 57.0701 641.215 57.0701L636.503 57.5602H631.31C630.869 57.5602 630.512 57.9185 630.512 58.3606V84.231C630.512 84.673 630.869 85.0313 631.31 85.0313H636.343C636.784 85.0313 637.142 84.673 637.142 84.231V78.3243C637.142 77.9556 637.46 77.6679 637.826 77.706L641.215 78.0585C641.215 78.0585 641.215 78.0584 641.215 78.0584C641.215 78.0584 641.215 78.0583 641.215 78.0583C641.215 78.0582 641.215 78.0581 641.215 78.0581C641.61 78.1046 642.023 78.1285 642.454 78.1285C647.686 78.1285 652 73.5267 652 67.5643C652 61.6019 647.686 57 642.454 57C642.023 57 641.61 57.0239 641.215 57.0704ZM641.256 72.4462C638.5 72.4462 636.503 70.5655 636.503 67.5643C636.503 64.5631 638.5 62.6823 641.256 62.6823C644.012 62.6823 646.009 64.5631 646.009 67.5643C646.009 70.5655 644.012 72.4462 641.256 72.4462Z" fill="white"/>
<path d="M568.243 67.3642V58.3606C568.243 57.9185 567.886 57.5602 567.444 57.5602H562.631C562.19 57.5602 561.833 57.9185 561.833 58.3606V68.5647C561.833 73.8068 566.426 78.1285 572.377 78.1285C578.328 78.1285 582.922 73.8068 582.922 68.5647V58.3606C582.922 57.9185 582.564 57.5602 582.123 57.5602H577.31C576.869 57.5602 576.511 57.9185 576.511 58.3606V67.3642C576.511 69.9841 574.774 71.6259 572.377 71.6259C569.98 71.6259 568.243 69.9841 568.243 67.3642Z" fill="white"/>
<path d="M562.631 79.147C562.408 78.6548 562.791 78.1285 563.33 78.1285H568.691C568.941 78.1285 569.172 78.2494 569.344 78.4312C570.081 79.2129 571.141 79.6492 572.377 79.6492C573.613 79.6492 574.673 79.2129 575.41 78.4312C575.582 78.2494 575.813 78.1285 576.063 78.1285H581.424C581.964 78.1285 582.347 78.6549 582.123 79.147C580.559 82.5879 576.852 85.0313 572.377 85.0313C568.683 85.0313 565.512 83.3663 563.639 80.8496C563.242 80.3176 562.904 79.7475 562.631 79.147Z" fill="white"/>
<path fill-rule="evenodd" clip-rule="evenodd" d="M188.432 17.0833L205.495 34.1667L222.558 17.0833L205.495 0L188.432 17.0833Z" fill="#EE5353"/>
<path fill-rule="evenodd" clip-rule="evenodd" d="M154.306 17.0833L171.369 34.1667L188.432 17.0833L171.369 0L154.306 17.0833Z" fill="#F5D749"/>
<path fill-rule="evenodd" clip-rule="evenodd" d="M205.495 51.25C205.495 60.6851 213.134 68.3333 222.558 68.3333H239.621V34.1666H222.558C213.134 34.1666 205.495 41.8148 205.495 51.25Z" fill="#EE5353"/>
<path fill-rule="evenodd" clip-rule="evenodd" d="M188.432 102.5C179.008 102.5 171.369 110.148 171.369 119.583V136.667H188.432C197.856 136.667 205.495 129.018 205.495 119.583C205.495 110.148 197.856 102.5 188.432 102.5Z" fill="#EE5353"/>
<path fill-rule="evenodd" clip-rule="evenodd" d="M188.261 111.042C183.55 111.042 179.73 114.867 179.73 119.583V128.125H188.261C192.973 128.125 196.793 124.3 196.793 119.583C196.793 114.867 192.973 111.042 188.261 111.042Z" fill="#F5D749"/>
<path fill-rule="evenodd" clip-rule="evenodd" d="M103.117 153.75C103.117 163.185 95.4776 170.833 86.0536 170.833H68.9905V153.75C68.9905 144.315 76.6297 136.667 86.0536 136.667C95.4776 136.667 103.117 144.315 103.117 153.75Z" fill="#EE5353"/>
<path d="M137.243 119.583C137.243 129.018 144.882 136.667 154.306 136.667H171.369V119.583C171.369 110.148 163.73 102.5 154.306 102.5C144.882 102.5 137.243 110.148 137.243 119.583Z" fill="#2E33B1"/>
<path fill-rule="evenodd" clip-rule="evenodd" d="M145.604 119.583C145.604 124.3 149.424 128.125 154.135 128.125H162.667V119.583C162.667 114.867 158.847 111.042 154.135 111.042C149.424 111.042 145.604 114.867 145.604 119.583Z" fill="#EE5353"/>
<path fill-rule="evenodd" clip-rule="evenodd" d="M214.197 51.25C214.197 55.9667 218.018 59.7917 222.729 59.7917H231.26V51.25C231.26 46.5333 227.44 42.7084 222.729 42.7084C218.018 42.7084 214.197 46.5333 214.197 51.25Z" fill="#F5D749"/>
<path fill-rule="evenodd" clip-rule="evenodd" d="M171.369 68.3334C152.521 68.3334 137.243 83.5905 137.243 102.413V102.5H205.495V102.413C205.495 83.5905 190.217 68.3334 171.369 68.3334Z" fill="#F5D749"/>
<path d="M205.495 136.667C205.495 155.537 220.774 170.833 239.621 170.833V102.5C220.774 102.5 205.495 117.796 205.495 136.667Z" fill="#2E33B1"/>
<path fill-rule="evenodd" clip-rule="evenodd" d="M103.117 136.667C84.2688 136.667 68.9906 121.37 68.9906 102.5H137.243C137.243 121.37 121.965 136.667 103.117 136.667Z" fill="#EE5353"/>
<path fill-rule="evenodd" clip-rule="evenodd" d="M239.621 34.1667V0H205.495L239.621 34.1667Z" fill="#3BA8C6"/>
<path d="M342 0H307.874V34.1667H342V0Z" fill="#2E33B1"/>
<path fill-rule="evenodd" clip-rule="evenodd" d="M273.748 102.5H239.621V136.667H273.748V102.5Z" fill="#3BA8C6"/>
<path fill-rule="evenodd" clip-rule="evenodd" d="M324.937 51.25L307.874 68.3333L324.937 85.4167L342 68.3333L324.937 51.25Z" fill="#EE5353"/>
<path fill-rule="evenodd" clip-rule="evenodd" d="M256.514 102.5L239.451 119.583L256.514 136.667L273.577 119.583L256.514 102.5Z" fill="#EE5353"/>
<path d="M324.937 85.4166L307.874 102.5L324.937 119.583L342 102.5L324.937 85.4166Z" fill="white"/>
<path d="M85.883 145.208L77.3515 153.75L85.883 162.292L94.4146 153.75L85.883 145.208Z" fill="white"/>
<path fill-rule="evenodd" clip-rule="evenodd" d="M205.41 34.2522C205.41 53.0268 190.132 68.248 171.284 68.248C152.436 68.248 137.158 53.0268 137.158 34.2522H205.41ZM162.837 51.2501L171.369 42.7084L179.901 51.2501L171.369 59.7918L162.837 51.2501Z" fill="#3BA8C6"/>
<path d="M324.937 119.583L307.874 136.667L324.937 153.75L342 136.667L324.937 119.583Z" fill="#2E33B1"/>
<path d="M120.18 17.0833L103.117 34.1667L86.0535 17.0833L103.117 0L120.18 17.0833Z" fill="#2E33B1"/>
<path fill-rule="evenodd" clip-rule="evenodd" d="M273.748 51.25C273.748 60.6851 281.387 68.3333 290.811 68.3333H307.874V34.1666H290.811C281.387 34.1666 273.748 41.8148 273.748 51.25Z" fill="#F5D749"/>
<path fill-rule="evenodd" clip-rule="evenodd" d="M137.243 153.75C137.243 163.185 144.882 170.833 154.306 170.833H171.369V136.667H154.306C144.882 136.667 137.243 144.315 137.243 153.75Z" fill="#EE5353"/>
<path fill-rule="evenodd" clip-rule="evenodd" d="M290.811 68.3334C281.387 68.3334 273.748 75.9816 273.748 85.4167C273.748 94.8518 281.387 102.5 290.811 102.5H307.874V85.4167C307.874 75.9816 300.235 68.3334 290.811 68.3334Z" fill="#EE5353"/>
<path d="M256.685 68.3334C247.261 68.3334 239.621 75.9816 239.621 85.4167V102.5H256.685C266.109 102.5 273.748 94.8518 273.748 85.4167C273.748 75.9816 266.109 68.3334 256.685 68.3334Z" fill="#2E33B1"/>
<path fill-rule="evenodd" clip-rule="evenodd" d="M273.748 34.1667C273.748 15.2964 258.469 0 239.621 0V68.3333C258.469 68.3333 273.748 53.0369 273.748 34.1667Z" fill="#F5D749"/>
<path d="M307.874 0H273.748V34.1667L307.874 0Z" fill="white"/>
<path fill-rule="evenodd" clip-rule="evenodd" d="M273.748 34.1667H307.874V0L273.748 34.1667Z" fill="#EE5353"/>
<path fill-rule="evenodd" clip-rule="evenodd" d="M342 34.1666H307.874V68.3333L342 34.1666Z" fill="#3BA8C6"/>
<path fill-rule="evenodd" clip-rule="evenodd" d="M307.874 170.833H342V136.667L307.874 170.833Z" fill="#3BA8C6"/>
<path fill-rule="evenodd" clip-rule="evenodd" d="M103.117 -3.8147e-05V34.1666H137.243L103.117 -3.8147e-05Z" fill="#3BA8C6"/>
<path fill-rule="evenodd" clip-rule="evenodd" d="M307.874 136.667V102.5H273.748L307.874 136.667Z" fill="#F5D749"/>
<path d="M205.495 136.667H171.369V170.833L205.495 136.667Z" fill="white"/>
<path d="M137.243 136.667V170.833H103.117L137.243 136.667Z" fill="white"/>
<path fill-rule="evenodd" clip-rule="evenodd" d="M171.369 0H137.243V34.1667L171.369 0Z" fill="#3BA8C6"/>
<path fill-rule="evenodd" clip-rule="evenodd" d="M171.369 170.833H205.495V136.667L171.369 170.833Z" fill="#F5D749"/>
<path fill-rule="evenodd" clip-rule="evenodd" d="M103.117 170.833V136.667H137.243L103.117 170.833Z" fill="#F5D749"/>
<path fill-rule="evenodd" clip-rule="evenodd" d="M273.748 170.833C292.595 170.833 307.874 155.537 307.874 136.667H239.621C239.621 155.537 254.9 170.833 273.748 170.833Z" fill="#EE5353"/>
<path d="M222.558 68.3334C213.134 68.3334 205.495 75.9816 205.495 85.4167C205.495 94.8518 213.134 102.5 222.558 102.5H239.621V85.4167C239.621 75.9816 231.982 68.3334 222.558 68.3334Z" fill="white"/>
<path fill-rule="evenodd" clip-rule="evenodd" d="M282.279 51.25C282.279 55.9667 286.1 59.7917 290.811 59.7917H299.342V51.25C299.342 46.5333 295.522 42.7084 290.811 42.7084C286.1 42.7084 282.279 46.5333 282.279 51.25Z" fill="#EE5353"/>
<path fill-rule="evenodd" clip-rule="evenodd" d="M222.558 145.208C217.847 145.208 214.027 149.033 214.027 153.75V162.292H222.558C227.269 162.292 231.09 158.467 231.09 153.75C231.09 149.033 227.269 145.208 222.558 145.208Z" fill="#F5D749"/>
<path fill-rule="evenodd" clip-rule="evenodd" d="M324.937 0L307.874 17.0833L324.937 34.1667L342 17.0833L324.937 0Z" fill="#F5D749"/>
<path fill-rule="evenodd" clip-rule="evenodd" d="M324.937 8.54163L316.405 17.0833L324.937 25.625L333.469 17.0833L324.937 8.54163Z" fill="#EE5353"/>
<path fill-rule="evenodd" clip-rule="evenodd" d="M324.937 93.9584L316.405 102.5L324.937 111.042L333.469 102.5L324.937 93.9584Z" fill="#3BA8C6"/>
<path d="M171.369 93.9583C166.657 93.9583 162.838 90.1341 162.838 85.4167C162.838 80.6992 166.657 76.875 171.369 76.875C176.081 76.875 179.901 80.6992 179.901 85.4167C179.901 90.1341 176.081 93.9583 171.369 93.9583Z" fill="#EE5353"/>
<path d="M290.811 93.9583C286.099 93.9583 282.279 90.1341 282.279 85.4167C282.279 80.6992 286.099 76.875 290.811 76.875C295.523 76.875 299.342 80.6992 299.342 85.4167C299.342 90.1341 295.523 93.9583 290.811 93.9583Z" fill="#F5D749"/>
<path d="M188.432 162.292C183.72 162.292 179.901 158.467 179.901 153.75C179.901 149.033 183.72 145.208 188.432 145.208C193.144 145.208 196.964 149.033 196.964 153.75C196.964 158.467 193.144 162.292 188.432 162.292Z" fill="#EE5353"/>
<path d="M324.937 145.208C320.225 145.208 316.405 141.384 316.405 136.667C316.405 131.949 320.225 128.125 324.937 128.125C329.649 128.125 333.469 131.949 333.469 136.667C333.469 141.384 329.649 145.208 324.937 145.208Z" fill="#3BA8C6"/>
<path d="M290.811 25.625C286.099 25.625 282.279 21.8007 282.279 17.0833C282.279 12.3659 286.099 8.54163 290.811 8.54163C295.523 8.54163 299.342 12.3659 299.342 17.0833C299.342 21.8007 295.523 25.625 290.811 25.625Z" fill="#F5D749"/>
<path fill-rule="evenodd" clip-rule="evenodd" d="M222.729 76.875L214.197 85.4167L222.729 93.9583L231.26 85.4167L222.729 76.875Z" fill="url(#paint2_linear)"/>
<path fill-rule="evenodd" clip-rule="evenodd" d="M86.0537 8.54163L77.5221 17.0833L86.0537 25.625L94.5852 17.0833L86.0537 8.54163Z" fill="#3BA8C6"/>
<path fill-rule="evenodd" clip-rule="evenodd" d="M0.738075 153.75C0.738075 144.315 8.37722 136.667 17.8012 136.667H34.8643V170.833H17.8012C8.37722 170.833 0.738075 163.185 0.738075 153.75Z" fill="#F5D749"/>
<path fill-rule="evenodd" clip-rule="evenodd" d="M68.9905 170.833H34.8643V136.667L68.9905 170.833Z" fill="#3BA8C6"/>
<defs>
<linearGradient id="paint0_linear" x1="777.26" y1="76.8733" x2="760.305" y2="93.8084" gradientUnits="userSpaceOnUse">
<stop stop-color="#F8A738"/>
<stop offset="1" stop-color="#FCD06D"/>
</linearGradient>
<linearGradient id="paint1_linear" x1="504.251" y1="128.127" x2="487.296" y2="111.192" gradientUnits="userSpaceOnUse">
<stop stop-color="#F8A738"/>
<stop offset="1" stop-color="#FCD06D"/>
</linearGradient>
<linearGradient id="paint2_linear" x1="231.26" y1="76.8733" x2="214.305" y2="93.8084" gradientUnits="userSpaceOnUse">
<stop stop-color="#F8A738"/>
<stop offset="1" stop-color="#FCD06D"/>
</linearGradient>
</defs>
</svg>
