<svg width="80" height="80" viewBox="0 0 80 80" fill="none" xmlns="http://www.w3.org/2000/svg">
<path d="M39.9992 0C17.9426 0 0 17.944 0 40C0 62.056 17.9426 80 39.9992 80C62.0558 80 80 62.056 80 40C80 17.944 62.0558 0 39.9992 0ZM39.9992 74.754C20.836 74.754 5.246 59.1632 5.246 40C5.246 20.8366 20.8358 5.2462 39.9992 5.2462C59.1626 5.2462 74.7534 20.8368 74.7534 40C74.7534 59.1632 59.1624 74.754 39.9992 74.754Z" fill="#44AF62"/>
<path d="M54.3784 26.6433L33.9003 47.0635L25.6224 38.8103C24.6051 37.7971 22.9572 37.7965 21.94 38.8109C20.9223 39.8257 20.9223 41.4692 21.94 42.4836L32.0594 52.5733C32.5679 53.0798 33.2341 53.3333 33.9003 53.3333C34.5665 53.3333 35.2345 53.0798 35.7428 52.5725C35.7444 52.5704 35.7456 52.5682 35.7481 52.5656L58.0606 30.3154C59.0782 29.3016 59.0782 27.6569 58.0606 26.6431C57.0435 25.6287 55.3945 25.6287 54.3784 26.6433Z" fill="#44AF62"/>
</svg>
