<svg width="24" height="24" viewBox="0 0 24 24" fill="none" xmlns="http://www.w3.org/2000/svg">
<path d="M9.34178 18.782L7.41078 18.264L8.19778 15.325C7.01975 14.8905 5.9249 14.2573 4.96078 13.453L2.80778 15.607L1.39278 14.192L3.54678 12.039C2.33086 10.5827 1.51387 8.83575 1.17578 6.96899L3.14378 6.60999C3.90278 10.812 7.57878 14 11.9998 14C16.4198 14 20.0968 10.812 20.8558 6.60999L22.8238 6.96799C22.4861 8.835 21.6695 10.5824 20.4538 12.039L22.6068 14.192L21.1918 15.607L19.0388 13.453C18.0747 14.2573 16.9798 14.8905 15.8018 15.325L16.5888 18.265L14.6578 18.782L13.8698 15.842C12.6321 16.0541 11.3674 16.0541 10.1298 15.842L9.34178 18.782Z" fill="black"/>
</svg>
