<svg width="18" height="18" viewBox="0 0 18 18" fill="currentColor" xmlns="http://www.w3.org/2000/svg">
<path fill-rule="evenodd" clip-rule="evenodd" d="M9.18367 7.71429V10.8H14.3921C14.1822 12.1243 12.8178 14.6829 9.18367 14.6829C6.0481 14.6829 3.4898 12.1371 3.4898 9C3.4898 5.86286 6.0481 3.31714 9.18367 3.31714C10.9679 3.31714 12.1618 4.06286 12.844 4.70571L15.3367 2.35286C13.7362 0.887143 11.6633 0 9.18367 0C4.10641 0 0 4.02429 0 9C0 13.9757 4.10641 18 9.18367 18C14.484 18 18 14.3486 18 9.20572C18 8.61429 17.9344 8.16429 17.8557 7.71429H9.18367Z"/>
</svg>
