<svg width="16" height="16" viewBox="0 0 16 16" fill="currentColor" xmlns="http://www.w3.org/2000/svg">
<path d="M12.6667 14H3.33334C3.15653 14 2.98696 13.9298 2.86193 13.8048C2.73691 13.6797 2.66667 13.5102 2.66667 13.3334V7.33336H0.666672L7.55134 1.07469C7.67408 0.963013 7.83406 0.901123 8 0.901123C8.16595 0.901123 8.32593 0.963013 8.44867 1.07469L15.3333 7.33336H13.3333V13.3334C13.3333 13.5102 13.2631 13.6797 13.1381 13.8048C13.0131 13.9298 12.8435 14 12.6667 14ZM4 12.6667H12V6.10469L8 2.46869L4 6.10469V12.6667ZM6 6.66669H10V10.6667H6V6.66669ZM7.33334 8.00003V9.33336H8.66667V8.00003H7.33334Z" />
</svg>
