<svg width="160" height="34" viewBox="0 0 160 34" fill="currentColor" xmlns="http://www.w3.org/2000/svg">
<path fill-rule="evenodd" clip-rule="evenodd" d="M14.0499 0C13.5424 0 13.0568 0.0280935 12.5928 0.0826994C12.5927 0.0827135 12.5926 0.0825501 12.5927 0.0824962C12.5928 0.0824427 12.5928 0.0822807 12.5927 0.082293L7.04846 0.657856H0.939794C0.42076 0.657856 0 1.07862 0 1.59765V32.6813C0 33.2004 0.42076 33.6211 0.939794 33.6211H6.8605C7.37953 33.6211 7.80029 33.2004 7.80029 32.6813V25.0404C7.80029 24.6075 8.17498 24.2697 8.60562 24.3144L12.5927 24.7283C12.5928 24.7283 12.5928 24.7281 12.5927 24.7281C12.5926 24.728 12.5927 24.7279 12.5928 24.7279C13.0568 24.7825 13.5424 24.8106 14.0499 24.8106C20.2056 24.8106 25.2805 19.4068 25.2805 12.4053C25.2805 5.40382 20.2056 0 14.0499 0ZM12.6402 18.138C9.39794 18.138 7.04846 15.9295 7.04846 12.4053C7.04846 8.88106 9.39794 6.67254 12.6402 6.67254C15.8825 6.67254 18.232 8.88106 18.232 12.4053C18.232 15.9295 15.8825 18.138 12.6402 18.138Z" />
<path fill-rule="evenodd" clip-rule="evenodd" d="M39.3794 0.0828813L44.9222 0.657856H51.0308C51.5499 0.657856 51.9706 1.07862 51.9706 1.59765V23.2129C51.9706 23.732 51.5499 24.1527 51.0308 24.1527H44.9222L39.3794 24.7277C38.9149 24.7824 38.4288 24.8106 37.9207 24.8106C31.7651 24.8106 26.6902 19.4068 26.6902 12.4053C26.6902 5.40382 31.7651 0 37.9207 0C38.4288 0 38.9149 0.0281539 39.3794 0.0828813ZM33.7386 12.4053C33.7386 15.9295 36.0881 18.138 39.3304 18.138C42.5727 18.138 44.9222 15.9295 44.9222 12.4053C44.9222 8.88106 42.5727 6.67254 39.3304 6.67254C36.0881 6.67254 33.7386 8.88106 33.7386 12.4053Z" />
<path fill-rule="evenodd" clip-rule="evenodd" d="M93.0887 0.0828813L98.6314 0.657856H104.74C105.259 0.657856 105.68 1.07862 105.68 1.59765V23.2129C105.68 23.732 105.259 24.1527 104.74 24.1527H98.6314L93.0887 24.7277C92.6242 24.7824 92.1381 24.8106 91.63 24.8106C85.4743 24.8106 80.3994 19.4068 80.3994 12.4053C80.3994 5.40382 85.4743 0 91.63 0C92.1381 0 92.6242 0.0281539 93.0887 0.0828813ZM87.4479 12.4053C87.4479 15.9295 89.7974 18.138 93.0396 18.138C96.2819 18.138 98.6314 15.9295 98.6314 12.4053C98.6314 8.88106 96.2819 6.67254 93.0396 6.67254C89.7974 6.67254 87.4479 8.88106 87.4479 12.4053Z" />
<path fill-rule="evenodd" clip-rule="evenodd" d="M121.844 0C121.337 0 120.851 0.0280935 120.387 0.0826994C120.387 0.0827135 120.387 0.0825501 120.387 0.0824962C120.387 0.0824427 120.387 0.0822807 120.387 0.082293L114.843 0.657856H108.734C108.215 0.657856 107.794 1.07862 107.794 1.59765V31.9765C107.794 32.4955 108.215 32.9163 108.734 32.9163H114.655C115.174 32.9163 115.595 32.4955 115.595 31.9765V25.0404C115.595 24.6075 115.969 24.2697 116.4 24.3144L120.387 24.7283C120.387 24.7283 120.387 24.7282 120.387 24.7282L120.387 24.7281C120.387 24.728 120.387 24.7279 120.387 24.7279C120.851 24.7825 121.337 24.8106 121.844 24.8106C128 24.8106 133.075 19.4068 133.075 12.4053C133.075 5.40382 128 0 121.844 0ZM120.435 18.138C117.192 18.138 114.843 15.9295 114.843 12.4053C114.843 8.88106 117.192 6.67254 120.435 6.67254C123.677 6.67254 126.026 8.88106 126.026 12.4053C126.026 15.9295 123.677 18.138 120.435 18.138Z" />
<path fill-rule="evenodd" clip-rule="evenodd" d="M147.312 0.0826994C147.312 0.0827135 147.312 0.0825501 147.312 0.0824962C147.312 0.0824427 147.312 0.0822807 147.312 0.082293L141.768 0.657856H135.659C135.14 0.657856 134.72 1.07862 134.72 1.59765V31.9765C134.72 32.4955 135.14 32.9163 135.659 32.9163H141.58C142.099 32.9163 142.52 32.4955 142.52 31.9765V25.0404C142.52 24.6075 142.895 24.2697 143.325 24.3144L147.312 24.7283C147.312 24.7283 147.312 24.7282 147.312 24.7282C147.312 24.7282 147.312 24.7281 147.312 24.7281C147.312 24.728 147.312 24.7279 147.312 24.7279C147.776 24.7825 148.262 24.8106 148.769 24.8106C154.925 24.8106 160 19.4068 160 12.4053C160 5.40382 154.925 0 148.769 0C148.262 0 147.776 0.0280935 147.312 0.0826994ZM147.36 18.138C144.117 18.138 141.768 15.9295 141.768 12.4053C141.768 8.88106 144.117 6.67254 147.36 6.67254C150.602 6.67254 152.952 8.88106 152.952 12.4053C152.952 15.9295 150.602 18.138 147.36 18.138Z" />
<path d="M61.4626 12.1703V1.59765C61.4626 1.07862 61.0418 0.657856 60.5228 0.657856H54.8605C54.3415 0.657856 53.9207 1.07862 53.9207 1.59765V13.58C53.9207 19.7357 59.3245 24.8106 66.326 24.8106C73.3275 24.8106 78.7313 19.7357 78.7313 13.58V1.59765C78.7313 1.07862 78.3105 0.657856 77.7915 0.657856H72.1292C71.6102 0.657856 71.1894 1.07862 71.1894 1.59765V12.1703C71.1894 15.2468 69.146 17.1747 66.326 17.1747C63.506 17.1747 61.4626 15.2468 61.4626 12.1703Z" />
<path d="M54.8603 26.0065C54.5971 25.4285 55.0479 24.8106 55.6829 24.8106H61.9899C62.2837 24.8106 62.5558 24.9525 62.7576 25.166C63.625 26.0839 64.8723 26.5962 66.326 26.5962C67.7797 26.5962 69.027 26.0839 69.8944 25.166C70.0962 24.9525 70.3683 24.8106 70.6621 24.8106H76.9691C77.6041 24.8106 78.0548 25.4286 77.7917 26.0066C75.9518 30.0471 71.5905 32.9163 66.326 32.9163C61.9802 32.9163 58.2499 30.9611 56.0453 28.0059C55.5793 27.3811 55.1814 26.7116 54.8603 26.0065Z" />
</svg>
