<svg width="20" height="20" viewBox="0 0 20 20" fill="currentColor" xmlns="http://www.w3.org/2000/svg">
<path d="M0.243 5.85399L9.49 0.30999C9.64542 0.216739 9.82325 0.16748 10.0045 0.16748C10.1857 0.16748 10.3636 0.216739 10.519 0.30999L19.757 5.85499C19.8311 5.8994 19.8925 5.96227 19.9351 6.03746C19.9776 6.11264 20 6.19758 20 6.28399V19C20 19.2652 19.8946 19.5196 19.7071 19.7071C19.5196 19.8946 19.2652 20 19 20H1C0.734784 20 0.48043 19.8946 0.292893 19.7071C0.105357 19.5196 1.10073e-08 19.2652 1.10073e-08 19V6.28299C-1.81179e-05 6.19658 0.0223578 6.11164 0.0649455 6.03646C0.107533 5.96127 0.168879 5.8984 0.243 5.85399ZM2 7.13299V18H18V7.13199L10.004 2.33199L2 7.13199V7.13299ZM10.06 12.698L15.356 8.23499L16.644 9.76499L10.074 15.302L3.364 9.77199L4.636 8.22799L10.06 12.698Z"/>
</svg>
