<svg width="34" height="10" viewBox="0 0 34 10" fill="currentColor" xmlns="http://www.w3.org/2000/svg">
<path fill-rule="evenodd" clip-rule="evenodd" d="M5 10C4.34339 10 3.69321 9.87067 3.08658 9.6194C2.47995 9.36812 1.92876 8.99983 1.46447 8.53553C1.00017 8.07124 0.631876 7.52005 0.380602 6.91342C0.129329 6.30679 0 5.65661 0 5C0 4.34339 0.129329 3.69321 0.380602 3.08658C0.631876 2.47995 1.00017 1.92876 1.46447 1.46447C1.92876 1.00017 2.47995 0.631876 3.08658 0.380602C3.69321 0.129329 4.34339 0 5 0C6.32608 0 7.59785 0.526784 8.53553 1.46447C9.47322 2.40215 10 3.67392 10 5C10 6.32608 9.47322 7.59785 8.53553 8.53553C7.59785 9.47322 6.32608 10 5 10ZM5 7.77778C5.73671 7.77778 6.44325 7.48512 6.96419 6.96419C7.48512 6.44325 7.77778 5.73671 7.77778 5C7.77778 4.26329 7.48512 3.55675 6.96419 3.03581C6.44325 2.51488 5.73671 2.22222 5 2.22222C4.26329 2.22222 3.55675 2.51488 3.03581 3.03581C2.51488 3.55675 2.22222 4.26329 2.22222 5C2.22222 5.73671 2.51488 6.44325 3.03581 6.96419C3.55675 7.48512 4.26329 7.77778 5 7.77778ZM17 10C16.3434 10 15.6932 9.87067 15.0866 9.6194C14.48 9.36812 13.9288 8.99983 13.4645 8.53553C13.0002 8.07124 12.6319 7.52005 12.3806 6.91342C12.1293 6.30679 12 5.65661 12 5C12 4.34339 12.1293 3.69321 12.3806 3.08658C12.6319 2.47995 13.0002 1.92876 13.4645 1.46447C13.9288 1.00017 14.48 0.631876 15.0866 0.380602C15.6932 0.129329 16.3434 0 17 0C18.3261 0 19.5979 0.526784 20.5355 1.46447C21.4732 2.40215 22 3.67392 22 5C22 6.32608 21.4732 7.59785 20.5355 8.53553C19.5979 9.47322 18.3261 10 17 10ZM17 7.77778C17.7367 7.77778 18.4433 7.48512 18.9642 6.96419C19.4851 6.44325 19.7778 5.73671 19.7778 5C19.7778 4.26329 19.4851 3.55675 18.9642 3.03581C18.4433 2.51488 17.7367 2.22222 17 2.22222C16.2633 2.22222 15.5567 2.51488 15.0358 3.03581C14.5149 3.55675 14.2222 4.26329 14.2222 5C14.2222 5.73671 14.5149 6.44325 15.0358 6.96419C15.5567 7.48512 16.2633 7.77778 17 7.77778ZM27.0866 9.6194C27.6932 9.87067 28.3434 10 29 10C30.3261 10 31.5979 9.47322 32.5355 8.53553C33.4732 7.59785 34 6.32608 34 5C34 3.67392 33.4732 2.40215 32.5355 1.46447C31.5979 0.526784 30.3261 0 29 0C28.3434 0 27.6932 0.129329 27.0866 0.380602C26.48 0.631876 25.9288 1.00017 25.4645 1.46447C25.0002 1.92876 24.6319 2.47995 24.3806 3.08658C24.1293 3.69321 24 4.34339 24 5C24 5.65661 24.1293 6.30679 24.3806 6.91342C24.6319 7.52005 25.0002 8.07124 25.4645 8.53553C25.9288 8.99983 26.48 9.36812 27.0866 9.6194ZM30.9642 6.96419C30.4433 7.48512 29.7367 7.77778 29 7.77778C28.2633 7.77778 27.5567 7.48512 27.0358 6.96419C26.5149 6.44325 26.2222 5.73671 26.2222 5C26.2222 4.26329 26.5149 3.55675 27.0358 3.03581C27.5567 2.51488 28.2633 2.22222 29 2.22222C29.7367 2.22222 30.4433 2.51488 30.9642 3.03581C31.4851 3.55675 31.7778 4.26329 31.7778 5C31.7778 5.73671 31.4851 6.44325 30.9642 6.96419Z"/>
</svg>
