<svg width="16" height="16" viewBox="0 0 16 16" fill="none" xmlns="http://www.w3.org/2000/svg">
<path d="M14.2933 7.36678L8.16665 13.4934C7.41609 14.244 6.39811 14.6657 5.33665 14.6657C4.2752 14.6657 3.25721 14.244 2.50665 13.4934C1.75609 12.7429 1.33443 11.7249 1.33443 10.6634C1.33443 9.60199 1.75609 8.58401 2.50665 7.83344L8.63332 1.70678C9.13369 1.2064 9.81235 0.925293 10.52 0.925293C11.2276 0.925293 11.9063 1.2064 12.4067 1.70678C12.907 2.20715 13.1881 2.88581 13.1881 3.59344C13.1881 4.30108 12.907 4.97973 12.4067 5.48011L6.27332 11.6068C6.02313 11.857 5.6838 11.9975 5.32998 11.9975C4.97617 11.9975 4.63684 11.857 4.38665 11.6068C4.13646 11.3566 3.99591 11.0173 3.99591 10.6634C3.99591 10.3096 4.13646 9.9703 4.38665 9.72011L10.0467 4.06678" stroke="currentColor" stroke-linecap="round" stroke-linejoin="round"/>
</svg>
